<?xml version="1.0" encoding="UTF-8"?>
<svg id="_x32_026" xmlns="http://www.w3.org/2000/svg" version="1.1" viewBox="130 340 815 340">
  <!-- Generator: Adobe Illustrator 30.1.0, SVG Export Plug-In . SVG Version: 2.1.1 Build 136)  -->
  <defs>
    <style>
      .st0 {
        stroke: #f58120;
      }

      .st0, .st1, .st2, .st3 {
        fill: none;
        stroke-miterlimit: 10;
        stroke-width: 3.6px;
      }

      .st1 {
        stroke: #4a9bad;
      }

      .st2 {
        stroke: #417b3a;
      }

      .st3 {
        stroke: #ed2e88;
      }
    </style>
  </defs>
  <path class="st3" d="M205.5,557c22.5-24.9,52.5-49.6,71.9-72,10.1-11.7,15.6-23.2,13.6-36.9-3-21.5-17.8-34.4-41.6-31.2-13.2,1.8-22.9,7.2-28.6,16.6-6.9,10.4-9.2,23.6-7,42.7l-64.9,8.7c-4.6-32.4-1.6-53.1,9.4-73.2,12.8-24.8,41.1-44.3,85-50.2,67.8-9.1,110,25.8,116.9,74.8,5.4,38.5-13.2,63.7-35.6,86.2-22.2,23.6-50.2,44.7-67.1,68.1v.4c0,0,122.5-16.4,122.5-16.4l7.9,56.4-218.6,29.3c-5.7-46.7,11.5-76.3,36.2-103.2Z"/>
  <path class="st1" d="M330,482.8c11.6-88.4,69.7-138.5,143.7-128.7,75.7,10.1,117.2,73.4,105.5,161.8-11.6,88.4-69.3,138.6-144.1,128.6-73.2-9.7-116.7-73.3-105.1-161.7ZM507.7,506.4c7.1-54-3.1-94.1-41-99.1-37.8-5-58.4,30.6-65.6,85-7.1,54.4,3.6,93.8,41.4,98.8,38.2,5.1,57.9-29.9,65.1-84.6Z"/>
  <path class="st2" d="M569.1,540.1c27.7-19.2,62.7-36.5,86.9-54,12.5-9.1,20.6-19,21.9-32.9,2.1-21.6-9.3-37.4-33.3-39.7-13.2-1.2-23.9,1.9-31.8,9.8-9.2,8.6-14.5,20.8-16.7,39.9l-65.3-6.1c3.1-32.6,10.8-52,26.2-69.1,18.3-21.3,50.4-33.9,94.6-29.8,68.2,6.4,101.1,49.7,96.4,99-3.7,38.7-27.8,59.1-54.8,75.8-27.2,18-59.4,32.3-81.2,51.2v.4s123.1,11.5,123.1,11.5l-5.4,56.6-219.8-20.5c5.3-46.8,29-71.7,59.3-92.3Z"/>
  <path class="st0" d="M695.5,501c6.1-45.4,21.9-82.5,50-106.2,23.4-19.9,54-28.8,94.3-23.2,58.3,8.1,91.1,42.5,93.3,88.6l-66.1-9.2c-2.1-14.3-10.3-27.5-33.3-30.7-34.5-4.8-57.1,18.1-65.5,62.3h.8c17.5-13.6,37.9-21.5,68.3-17.2,54.2,7.6,95.9,53.1,87.3,112.6-8.5,59.1-61.5,92.2-126,83.2-82.6-11.5-114.6-77.6-103.1-160.3ZM858.8,569.2c4-27.5-13.1-51.4-41.5-55.4-30-4.2-51.9,13.8-55.9,41.8-4,27.5,13.3,50.2,42.1,54.2,28.4,4,51.4-13.5,55.3-40.6Z"/>
</svg>