<?xml version="1.0" encoding="UTF-8"?>
<svg xmlns="http://www.w3.org/2000/svg" version="1.1" viewBox="475 340 475 340">
  <defs>
    <style>
      .st0 {
        stroke: #f58120;
      }

      .st0, .st2 {
        fill: none;
        stroke-miterlimit: 10;
        stroke-width: 3.6px;
      }

      .st2 {
        stroke: #417b3a;
      }
    </style>
  </defs>
  <!-- Green 2 -->
  <path class="st2" d="M569.1,540.1c27.7-19.2,62.7-36.5,86.9-54,12.5-9.1,20.6-19,21.9-32.9,2.1-21.6-9.3-37.4-33.3-39.7-13.2-1.2-23.9,1.9-31.8,9.8-9.2,8.6-14.5,20.8-16.7,39.9l-65.3-6.1c3.1-32.6,10.8-52,26.2-69.1,18.3-21.3,50.4-33.9,94.6-29.8,68.2,6.4,101.1,49.7,96.4,99-3.7,38.7-27.8,59.1-54.8,75.8-27.2,18-59.4,32.3-81.2,51.2v.4s123.1,11.5,123.1,11.5l-5.4,56.6-219.8-20.5c5.3-46.8,29-71.7,59.3-92.3Z"/>
  <!-- Orange 6 -->
  <path class="st0" d="M695.5,501c6.1-45.4,21.9-82.5,50-106.2,23.4-19.9,54-28.8,94.3-23.2,58.3,8.1,91.1,42.5,93.3,88.6l-66.1-9.2c-2.1-14.3-10.3-27.5-33.3-30.7-34.5-4.8-57.1,18.1-65.5,62.3h.8c17.5-13.6,37.9-21.5,68.3-17.2,54.2,7.6,95.9,53.1,87.3,112.6-8.5,59.1-61.5,92.2-126,83.2-82.6-11.5-114.6-77.6-103.1-160.3ZM858.8,569.2c4-27.5-13.1-51.4-41.5-55.4-30-4.2-51.9,13.8-55.9,41.8-4,27.5,13.3,50.2,42.1,54.2,28.4,4,51.4-13.5,55.3-40.6Z"/>
</svg>
