<svg width="181" height="62" viewBox="0 0 181 62" fill="none" xmlns="http://www.w3.org/2000/svg">
<g clip-path="url(#clip0_4_10)">
<path d="M0 30.6996C12.1519 30.6996 26.2226 47.0088 26.2226 61.3993C26.2226 47.3286 40.2933 30.6996 52.4452 30.6996C40.2933 30.6996 26.2226 14.3905 26.2226 0C26.2226 14.0707 12.1519 30.6996 0 30.6996Z" fill="#F58120"/>
<path d="M64.2774 30.6996C76.4293 30.6996 90.5 47.0088 90.5 61.3993C90.5 47.3286 104.571 30.6996 116.723 30.6996C104.571 30.6996 90.5 14.3905 90.5 0C90.5 14.0707 76.4293 30.6996 64.2774 30.6996Z" fill="#F58120"/>
<path d="M128.555 30.6996C140.707 30.6996 154.777 47.0088 154.777 61.3993C154.777 47.3286 168.848 30.6996 181 30.6996C168.848 30.6996 154.777 14.3905 154.777 0C154.777 14.0707 140.707 30.6996 128.555 30.6996Z" fill="#F58120"/>
</g>
<defs>
<clipPath id="clip0_4_10">
<rect width="181" height="61.0795" fill="white"/>
</clipPath>
</defs>
</svg>
