<?xml version="1.0" encoding="UTF-8"?>
<svg id="Layer_1" xmlns="http://www.w3.org/2000/svg" xmlns:xlink="http://www.w3.org/1999/xlink" version="1.1" viewBox="0 0 586.8 586.8">
  <!-- Generator: Adobe Illustrator 30.0.0, SVG Export Plug-In . SVG Version: 2.1.1 Build 123)  -->
  <defs>
    <style>
      .st0 {
        mask: url(#mask);
      }

      .st1 {
        fill: #141414;
      }

      .st2 {
        fill: #fff;
      }

      .st3 {
        fill: #ed2e88;
      }
    </style>
    <mask id="mask" x="20.2" y="66.3" width="506.2" height="502" maskUnits="userSpaceOnUse">
      <circle class="st2" cx="296.6" cy="296.1" r="229.8"/>
    </mask>
  </defs>
  <circle class="st3" cx="296.6" cy="295.1" r="229.8"/>
  <g class="st0">
    <g>
      <ellipse class="st1" cx="222.2" cy="378.3" rx="189.4" ry="202.5" transform="translate(-193.1 519.8) rotate(-78.4)"/>
      <ellipse class="st2" cx="143.4" cy="355.3" rx="42.9" ry="57.4" transform="translate(-233.5 424.3) rotate(-78.4)"/>
      <path class="st1" d="M194.3,365.7c-5,24.2-40,33-58.4,27.4-4.3-1.3-6.9-3.2-7.9-3.9-15.3-11.4-11.2-37.1-10.9-38.5,2.2-12.3,10.3-30,24.8-33.2,1.9-.4,5-.9,9.6,0,18.6,3.2,47.8,23.9,42.8,48.2Z"/>
      <path class="st2" d="M177.3,362.3c-10-2-24,7.2-26,17.1,2-10-7.2-24-17.1-26,10,2,24-7.2,26-17.1-2,10,7.2,24,17.1,26Z"/>
      <ellipse class="st2" cx="303.7" cy="388.2" rx="42.9" ry="57.4" transform="translate(-137.7 607.5) rotate(-78.4)"/>
      <path class="st1" d="M354.5,398.6c-5,24.2-40,33-58.4,27.4-4.3-1.3-6.9-3.2-7.9-3.9-15.3-11.4-11.2-37.1-10.9-38.5,2.2-12.3,10.3-30,24.8-33.2,1.9-.4,5-.9,9.6,0,18.6,3.2,47.8,23.9,42.8,48.2Z"/>
      <path class="st2" d="M337.6,395.2c-10-2-24,7.2-26,17.1,2-10-7.2-24-17.1-26,10,2,24-7.2,26-17.1-2,10,7.2,24,17.1,26Z"/>
      <rect class="st2" x="194.2" y="411.1" width="38.8" height="17.9" rx="8.9" ry="8.9" transform="translate(88.9 -34.4) rotate(11.6)"/>
      <ellipse class="st1" cx="391" cy="264.2" rx="68.3" ry="87.2" transform="translate(-80.6 279.3) rotate(-35.9)"/>
      <path class="st2" d="M374.7,248.1c17.8-12,37.9-13.1,49.8-6.7,12.5,6.7,19.3,19.1,19.3,19.2.3.6.6,1.1.7,1.4,1.5,3,7.6,15.7,4.2,31.5-5.1,24-27.3,34-29.7,35.1-2.4-8.4-5.6-17.6-9.9-27.2-10.3-23.1-23.3-40.7-34.4-53.2Z"/>
      <ellipse class="st1" cx="111.6" cy="206.8" rx="87.2" ry="68.3" transform="translate(-90.3 86.7) rotate(-30.9)"/>
      <path class="st2" d="M133,198.4c-11.6-18-29.7-27-43.1-25.8-14.1,1.2-25.3,10-25.3,10-.5.4-.9.8-1.2,1-2.6,2.1-13.2,11.4-16.3,27.3-4.8,24,11.7,42.1,13.4,43.9,5.5-6.8,12.1-14,19.8-21.1,18.6-17.2,37.5-28.2,52.6-35.3Z"/>
    </g>
  </g>
</svg>