<svg width="717" height="157" viewBox="0 0 717 157" fill="none" xmlns="http://www.w3.org/2000/svg">
<path d="M88.7517 48.1277C89.6574 83.3179 92.7624 112.945 95.738 155.38H34.1552C37.1308 112.945 40.2358 83.3179 41.1415 48.1277C27.4276 48.5159 13.7138 49.4215 0 50.7153V1.55251H129.893V50.7153C116.179 49.4215 102.466 48.5159 88.7517 48.1277Z" fill="#ED2E88"/>
<path d="M284.368 1.55251H335.6C342.587 25.0989 355.783 54.7259 370.661 78.4017C370.661 54.7259 369.497 31.1795 367.556 1.55251H424.611C420.342 61.0653 420.6 95.8674 424.611 155.38H374.672C365.745 131.834 354.877 104.665 338.317 76.461C338.317 100.654 339.482 124.848 341.422 155.38H284.368C288.378 95.8674 288.637 61.0653 284.368 1.55251Z" fill="#ED2E88"/>
<path d="M440.265 98.7136C446.605 100.007 477.396 106.347 498.226 106.347C509.74 106.347 518.279 104.406 518.279 98.843C518.279 93.2799 512.457 90.4336 503.918 90.4336C496.285 90.4336 486.194 91.7274 476.102 91.7274C455.92 91.7274 435.867 86.2936 435.867 52.7853C435.867 10.9969 469.634 0 504.824 0C540.014 0 541.955 3.10502 556.574 6.21004V57.8309C550.235 56.5372 520.349 50.1978 500.166 50.1978C489.169 50.1978 480.889 52.1384 480.889 57.7016C480.889 66.7579 487.876 68.9572 497.708 68.9572C505.988 68.9572 516.338 67.4047 526.43 67.4047C545.577 67.4047 563.302 72.7091 563.302 103.63C563.302 134.551 528.629 156.415 492.792 156.415C474.162 156.415 455.014 153.31 440.395 150.205V98.5843L440.265 98.7136Z" fill="#ED2E88"/>
<path d="M682.845 1.55251H606.254C599.915 53.8203 584.907 104.406 571.84 155.38H630.448C631.095 145.677 631.741 136.75 632.647 127.953C636.916 126.918 640.798 126.4 644.55 126.4C648.172 126.4 651.924 126.788 656.193 127.953C657.099 136.491 657.746 145.806 658.393 155.38H717C703.933 104.406 688.925 53.8203 682.586 1.55251H682.845ZM644.55 91.4686C644.55 79.1779 630.189 64.6878 617.769 64.6878C630.06 64.6878 644.55 50.3271 644.55 37.9071C644.55 50.1978 658.91 64.6878 671.33 64.6878C659.04 64.6878 644.55 79.0485 644.55 91.4686Z" fill="#ED2E88"/>
<path d="M238.698 1.55251H162.108C155.768 53.8203 140.761 104.406 127.694 155.38H186.301C186.948 145.677 187.595 136.75 188.5 127.953C192.77 126.918 196.651 126.4 200.403 126.4C204.155 126.4 207.777 126.788 212.047 127.953C212.952 136.491 213.599 145.806 214.246 155.38H272.853C259.786 104.406 244.779 53.8203 238.439 1.55251H238.698ZM200.403 91.4686C200.403 79.1779 186.042 64.6878 173.622 64.6878C185.913 64.6878 200.403 50.3271 200.403 37.9071C200.403 50.1978 214.764 64.6878 227.184 64.6878C214.893 64.6878 200.403 79.0485 200.403 91.4686Z" fill="#ED2E88"/>
</svg>
