<svg width="240" height="292" viewBox="0 0 240 292" fill="none" xmlns="http://www.w3.org/2000/svg">
<g clip-path="url(#clip0_77_155)">
<path d="M210.71 135.492L206.446 136.628L208.439 144.199C208.758 144.319 209.654 144.598 210.75 144.319C211.846 144.04 212.484 143.342 212.703 143.083L210.71 135.512V135.492Z" fill="#2D1F14" stroke="#231F20" stroke-width="0.75" stroke-miterlimit="10"/>
<path d="M220.155 132.603L215.891 133.738L217.883 141.31C218.202 141.43 219.099 141.709 220.194 141.43C221.29 141.151 221.928 140.453 222.147 140.194L220.155 132.623V132.603Z" fill="#2D1F14" stroke="#231F20" stroke-width="0.75" stroke-miterlimit="10"/>
<path d="M195.128 112.379L190.804 113.255L189.25 105.584C189.469 105.345 190.167 104.687 191.262 104.468C192.358 104.249 193.255 104.588 193.554 104.707L195.108 112.379H195.128Z" fill="#2D1F14" stroke="#231F20" stroke-width="0.75" stroke-miterlimit="10"/>
<path d="M205.29 110.585L200.966 111.462L199.412 103.791C199.631 103.552 200.329 102.894 201.425 102.675C202.52 102.456 203.417 102.795 203.716 102.914L205.27 110.585H205.29Z" fill="#2D1F14" stroke="#231F20" stroke-width="0.75" stroke-miterlimit="10"/>
<path d="M215.293 109.589L210.969 110.466L209.415 102.795C209.634 102.555 210.332 101.898 211.427 101.679C212.523 101.46 213.42 101.798 213.719 101.918L215.273 109.589H215.293Z" fill="#2D1F14" stroke="#231F20" stroke-width="0.75" stroke-miterlimit="10"/>
<path d="M203.576 262.595C203.576 262.595 197.877 250.919 215.83 244.503C215.83 244.503 219.337 262.496 203.576 262.595Z" fill="#427C3A"/>
<path d="M203.138 263.293L202.939 262.894C202.859 262.715 200.926 258.67 202.859 253.908C204.612 249.604 208.896 246.217 215.591 243.806L216.368 243.527L216.528 244.324C216.607 244.702 218.261 253.509 213.738 259.049C211.467 261.818 208.04 263.253 203.576 263.273H203.138V263.293ZM215.272 245.46C209.454 247.691 205.728 250.7 204.194 254.426C202.819 257.773 203.656 260.802 204.055 261.878C207.84 261.758 210.73 260.523 212.642 258.192C215.99 254.107 215.551 247.731 215.272 245.46Z" fill="#231F20"/>
<path d="M203.936 262.635C205.151 261.2 206.386 260.324 207.243 259.806C207.701 259.527 212.384 256.797 217.704 258.351C218.78 258.67 218.7 258.809 220.414 259.487C223.662 260.762 226.511 261.24 228.424 261.46C228.424 261.46 223.024 273.853 203.936 262.655V262.635Z" fill="#427C3A"/>
<path d="M218.003 268.035C213.838 268.035 209.016 266.441 203.577 263.233L202.859 262.814L203.397 262.177C204.414 260.981 205.569 259.985 206.864 259.188C207.402 258.869 212.324 256.04 217.883 257.654C218.521 257.833 218.82 257.973 219.178 258.172C219.497 258.331 219.876 258.511 220.653 258.809C223.163 259.806 225.793 260.443 228.483 260.742L229.44 260.842L229.061 261.719C228.981 261.878 227.248 265.783 222.346 267.377C220.991 267.816 219.537 268.035 218.003 268.035ZM205.031 262.456C211.766 266.262 217.425 267.477 221.868 266.042C224.837 265.086 226.511 263.133 227.268 262.017C224.817 261.679 222.426 261.041 220.135 260.144C219.318 259.826 218.879 259.606 218.561 259.447C218.222 259.288 218.003 259.168 217.485 259.029C212.503 257.574 208.08 260.125 207.602 260.423C206.665 260.981 205.808 261.679 205.051 262.476L205.031 262.456Z" fill="#231F20"/>
<path d="M212.582 205.928C211.726 206.087 209.952 206.286 207.98 205.489C204.393 204.055 203.217 200.508 203.078 200.03C202.66 198.675 202.839 198.037 202.859 194.471C202.879 191.861 202.799 189.768 202.739 188.433C205.33 190.585 209.514 194.75 211.566 201.205C212.104 202.879 212.403 204.473 212.582 205.908V205.928Z" fill="#427C3A"/>
<path d="M210.988 206.765C210.012 206.765 208.876 206.605 207.701 206.147C203.915 204.633 202.6 200.966 202.381 200.249C202.042 199.153 202.042 198.456 202.102 196.762C202.102 196.164 202.142 195.427 202.142 194.471C202.142 192.458 202.122 190.446 202.022 188.493L201.942 186.899L203.178 187.915C207.521 191.522 210.65 196.045 212.244 201.026C212.742 202.6 213.101 204.214 213.28 205.868L213.36 206.526L212.702 206.645C212.224 206.725 211.646 206.804 210.988 206.804V206.765ZM203.497 190.047C203.536 191.502 203.556 192.996 203.556 194.471C203.556 195.427 203.536 196.164 203.516 196.782C203.477 198.396 203.457 198.934 203.736 199.811C203.935 200.428 205.051 203.557 208.239 204.832C209.554 205.37 210.809 205.41 211.785 205.31C211.586 203.995 211.287 202.68 210.889 201.425C209.534 197.181 207.003 193.275 203.497 190.047Z" fill="#231F20"/>
<path d="M26.5402 267.258C26.5402 267.258 48.3983 257.076 49.7133 255.382C51.0284 253.689 56.5278 235.816 56.7071 229.998C56.8864 224.179 56.5278 213.081 56.7071 208.976C56.8864 204.872 55.0932 202.819 56.747 198.715C58.4008 194.61 83.7856 185.285 135.591 186.58C135.591 186.58 174.187 187.098 187.138 192.279C187.138 192.279 193.554 193.634 193.375 203.059C193.195 212.483 193.375 219.417 193.375 219.417C193.375 219.417 203.556 216.727 207.223 214.416C210.889 212.105 210.869 204.413 212.802 200.568C214.735 196.722 218.759 202.68 218.759 202.68C218.759 202.68 216.827 211.328 213.758 215.751C213.758 215.751 222.226 217.863 221.828 219.218C221.429 220.573 218.56 222.107 218.56 222.107C218.56 222.107 210.869 219.995 208.936 221.729C207.004 223.462 196.622 226.152 194.71 229.42C192.777 232.687 191.641 247.113 193.933 251.537C196.224 255.96 203.357 258.271 206.246 261.738C209.136 265.205 209.893 266.74 215.093 270.386C220.294 274.032 227.028 279.034 223.561 279.034C220.094 279.034 210.67 276.722 202.6 277.3C194.53 277.878 184.906 279.99 180.862 280.568C176.817 281.146 165.081 280.568 165.081 280.568C165.081 280.568 135.053 283.975 128.797 284.135C122.54 284.294 106.799 282.74 106.799 282.74C106.799 282.74 73.265 278.376 69.3597 276.802C65.4543 275.228 61.4095 271.183 48.2986 272.279C35.1878 273.375 28.5726 273.096 26.5203 269.848C26.5203 269.848 24.8267 268.015 26.5203 267.218L26.5402 267.258Z" fill="#5C3E1E"/>
<path d="M127.84 284.892C121.145 284.892 107.357 283.537 106.739 283.477C105.345 283.298 73.0458 279.073 69.1006 277.499C68.3036 277.181 67.5066 276.762 66.6498 276.324C63.2824 274.57 58.6797 272.179 48.3584 273.036C31.92 274.411 27.7756 273.156 25.9624 270.326C25.7233 270.067 24.8864 269.031 25.1056 267.975C25.1853 267.577 25.4443 267.019 26.2413 266.64C34.59 262.755 48.2189 256.139 49.1554 254.964C50.3509 253.43 55.8304 235.776 55.9898 229.998C56.0695 227.049 56.0296 222.765 55.9898 218.62C55.9499 214.695 55.9101 210.989 55.9898 208.956C56.0495 207.482 55.8503 206.286 55.651 205.111C55.3123 203.098 54.9935 201.205 56.0894 198.456C57.2052 195.686 65.4941 192.359 77.2102 189.948C88.1093 187.696 107.078 185.166 135.591 185.883C137.165 185.903 174.366 186.461 187.337 191.621C188.094 191.821 194.251 193.733 194.052 203.078C193.893 210.431 193.992 216.329 194.052 218.501C196.583 217.803 203.935 215.651 206.844 213.818C208.916 212.503 209.733 209.056 210.51 205.709C210.989 203.656 211.427 201.743 212.164 200.249C212.822 198.934 213.698 198.615 214.336 198.575C216.647 198.416 219.078 201.903 219.337 202.281L219.517 202.54L219.457 202.839C219.377 203.178 217.683 210.71 214.894 215.332C217.444 216.01 221.668 217.305 222.406 218.56C222.605 218.919 222.585 219.218 222.525 219.417C222.087 220.971 219.437 222.446 218.899 222.725L218.66 222.864L218.381 222.785C215.332 221.948 210.55 221.23 209.414 222.247C208.597 222.984 206.665 223.761 204.254 224.757C200.926 226.112 196.383 227.965 195.327 229.778C193.494 232.907 192.358 246.974 194.57 251.218C195.805 253.589 198.615 255.362 201.345 257.096C203.477 258.451 205.509 259.726 206.804 261.3C207.302 261.898 207.741 262.436 208.159 262.954C210.052 265.305 211.307 266.859 215.531 269.828C224.099 275.865 225.574 277.719 225.195 278.914C225.076 279.313 224.697 279.771 223.601 279.771C222.346 279.771 220.433 279.492 218.002 279.133C213.718 278.516 207.86 277.659 202.68 278.037C197.021 278.436 190.585 279.611 185.863 280.468C183.89 280.827 182.196 281.126 180.981 281.305C177.016 281.863 166.137 281.365 165.121 281.305C163.248 281.524 134.954 284.712 128.837 284.872C128.538 284.872 128.199 284.872 127.86 284.872L127.84 284.892ZM52.5228 271.422C60.3335 271.422 64.2986 273.494 67.3073 275.068C68.1243 275.487 68.9013 275.905 69.6386 276.184C72.6672 277.4 95.3422 280.568 106.919 282.062C107.058 282.062 122.7 283.616 128.797 283.457C134.934 283.298 164.722 279.93 165.021 279.89H165.081H165.14C165.26 279.89 176.857 280.468 180.782 279.89C181.957 279.731 183.651 279.412 185.604 279.054C190.346 278.197 196.842 277.021 202.56 276.603C207.9 276.224 213.838 277.081 218.182 277.719C220.453 278.057 222.426 278.336 223.581 278.336C223.641 278.336 223.701 278.336 223.741 278.336C223.362 277.639 221.569 275.786 214.715 270.964C210.331 267.875 209.036 266.261 207.063 263.811C206.665 263.313 206.226 262.775 205.728 262.177C204.573 260.782 202.64 259.567 200.588 258.271C197.718 256.458 194.729 254.565 193.315 251.856C190.884 247.213 192.099 232.448 194.092 229.041C195.407 226.809 199.81 225.016 203.716 223.442C205.828 222.585 207.82 221.768 208.478 221.191C210.47 219.397 216.647 220.872 218.48 221.35C219.477 220.772 220.772 219.836 221.111 219.178C220.453 218.501 216.787 217.245 213.599 216.448L212.602 216.209L213.18 215.372C215.83 211.567 217.624 204.394 218.002 202.839C217.106 201.604 215.472 199.91 214.436 199.99C214.296 199.99 213.858 200.03 213.439 200.887C212.782 202.222 212.343 204.075 211.885 206.027C211.048 209.654 210.172 213.4 207.601 215.014C203.895 217.345 193.972 219.995 193.554 220.095L192.697 220.314V219.417C192.697 219.417 192.478 212.364 192.677 203.039C192.856 194.351 187.238 193.016 186.998 192.976L186.879 192.936C174.206 187.856 135.97 187.298 135.591 187.298C81.0558 185.943 58.58 196.125 57.4244 198.994C56.468 201.365 56.7469 202.979 57.0657 204.872C57.265 206.047 57.4842 207.382 57.4244 209.016C57.3447 211.009 57.3845 214.695 57.4244 218.6C57.4642 222.745 57.524 227.049 57.4244 230.017C57.265 235.656 51.8054 253.848 50.2911 255.801C48.9362 257.534 30.5252 266.162 26.859 267.875C26.5601 268.015 26.5203 268.154 26.5203 268.194C26.4605 268.493 26.7992 269.071 27.0782 269.37L27.1579 269.469C29.0906 272.538 36.3634 272.558 48.2787 271.562C49.8129 271.442 51.2475 271.382 52.5427 271.382L52.5228 271.422Z" fill="#231F20"/>
<path d="M62.3062 245.001C62.3062 245.001 63.96 233.823 62.3062 230.874C60.6524 227.925 49.5938 228.403 49.2352 229.818C48.8765 231.233 52.483 245.958 51.2078 251.895" fill="#5C3E1E"/>
<path d="M51.885 252.055L50.5101 251.756C51.3271 247.95 50.0319 240.199 49.1951 235.078C48.5973 231.512 48.418 230.217 48.5575 229.639C48.677 229.141 49.1552 228.523 51.6857 228.184C54.5749 227.806 61.4292 227.846 62.9236 230.535C64.6372 233.604 63.1826 243.945 63.0033 245.121L61.6085 244.922C62.0668 241.873 62.9435 233.484 61.6882 231.233C61.2897 230.516 59.875 229.938 57.8227 229.639C54.2561 229.121 50.5898 229.639 49.9124 230.097C49.8925 230.675 50.2511 232.807 50.5898 234.879C51.4666 240.12 52.7617 248.01 51.9049 252.075L51.885 252.055Z" fill="#231F20"/>
<path d="M158.206 269.589C158.206 269.589 168.049 281.205 172.014 284.174C175.979 287.143 159.441 287.681 154.998 287.382C150.555 287.083 143.222 288.239 138.46 286.984C133.698 285.729 119.093 283.776 119.093 283.776" fill="#5C3E1E"/>
<path d="M144.498 288.279C142.286 288.279 140.114 288.139 138.301 287.661C133.638 286.446 119.173 284.493 119.033 284.473L119.213 283.078C119.81 283.158 133.917 285.051 138.66 286.286C141.549 287.044 145.594 286.864 149.14 286.725C151.332 286.625 153.384 286.545 155.078 286.665C160.199 287.024 170.939 286.266 171.935 285.011C171.895 284.951 171.815 284.852 171.636 284.732C167.631 281.743 158.107 270.506 157.708 270.027L158.784 269.111C158.884 269.23 168.607 280.707 172.473 283.597C173.449 284.334 173.449 285.011 173.29 285.47C172.114 288.618 155.158 288.1 154.978 288.08C153.364 287.96 151.352 288.06 149.2 288.139C147.686 288.199 146.072 288.279 144.498 288.279Z" fill="#231F20"/>
<path d="M73.4044 82.1121L62.8639 160.618L40.6871 163.766C40.6871 163.766 23.0731 170.7 36.3434 195.826C49.5937 220.951 60.8913 217.006 71.1728 216.608C81.4542 216.209 106.799 197.998 106.799 197.998L182.196 166.137C182.196 166.137 193.275 162.57 197.838 153.464C202.401 144.359 196.264 124.772 191.502 118.037C186.759 111.303 170.122 94.2864 159.442 85.9776C148.762 77.6687 151.531 53.7186 151.531 53.7186L73.4243 82.0922L73.4044 82.1121Z" fill="#131313"/>
<path d="M161.893 16.5978C153.146 8.5878 140.972 7.63138 134.695 14.4857C133.061 16.279 131.985 18.411 131.448 20.7422C126.426 19.1482 121.047 18.2715 115.447 18.2715C109.848 18.2715 104.409 19.1482 99.3479 20.7621C98.8099 18.4309 97.7339 16.279 96.1001 14.4857C89.8236 7.63138 77.6493 8.5878 68.9021 16.5978C60.1549 24.6077 58.1623 36.6625 64.4388 43.5168C65.8336 45.0511 67.5272 46.1868 69.4201 46.944C66.9494 52.4832 65.5745 58.5604 65.5745 64.9166C65.5745 90.68 87.9108 111.582 115.447 111.582C142.984 111.582 165.32 90.6999 165.32 64.9166C165.32 58.5206 163.946 52.4433 161.455 46.9041C163.308 46.147 164.962 45.0112 166.357 43.5168C172.633 36.6625 170.641 24.6077 161.893 16.5978Z" fill="#131313"/>
<path d="M105.186 62.7248C105.186 68.264 99.169 72.7671 91.7568 72.7671C84.3446 72.7671 78.3271 68.264 78.3271 62.7248C78.3271 57.1855 84.3446 52.6824 91.7568 52.6824C99.169 52.6824 105.186 57.1855 105.186 62.7248Z" fill="white"/>
<path d="M103.911 62.7248C103.911 68.523 96.2995 72.1694 91.8163 71.7709C90.7802 71.6712 90.0828 71.3723 89.8238 71.2528C85.779 69.3599 85.5199 63.2628 85.5199 62.944C85.4402 60.0149 86.4564 55.5915 89.6445 54.1569C90.0629 53.9577 90.7603 53.7186 91.8362 53.6986C96.2597 53.5591 103.911 56.9265 103.931 62.7447L103.911 62.7248Z" fill="#231F20"/>
<path d="M99.8467 62.7447C97.4756 62.7447 94.686 65.5143 94.686 67.9053C94.686 65.5342 91.9164 62.7447 89.5254 62.7447C91.8965 62.7447 94.686 59.9751 94.686 57.584C94.686 59.9552 97.4557 62.7447 99.8467 62.7447Z" fill="white"/>
<path d="M143.463 62.7248C143.463 68.264 137.445 72.7671 130.033 72.7671C122.621 72.7671 116.604 68.264 116.604 62.7248C116.604 57.1855 122.621 52.6824 130.033 52.6824C137.445 52.6824 143.463 57.1855 143.463 62.7248Z" fill="white"/>
<path d="M142.187 62.7248C142.187 68.523 134.576 72.1694 130.093 71.7709C129.057 71.6712 128.359 71.3723 128.1 71.2528C124.055 69.3599 123.796 63.2628 123.796 62.944C123.717 60.0149 124.733 55.5915 127.921 54.1569C128.339 53.9577 129.037 53.7186 130.113 53.6986C134.536 53.5591 142.187 56.9265 142.207 62.7447L142.187 62.7248Z" fill="#231F20"/>
<path d="M138.143 62.7447C135.771 62.7447 132.982 65.5143 132.982 67.9053C132.982 65.5342 130.212 62.7447 127.821 62.7447C130.192 62.7447 132.982 59.9751 132.982 57.584C132.982 59.9552 135.752 62.7447 138.143 62.7447Z" fill="white"/>
<path d="M113.436 72.1694H108.375C107.263 72.1694 106.362 73.0704 106.362 74.1818V74.3412C106.362 75.4527 107.263 76.3537 108.375 76.3537H113.436C114.547 76.3537 115.448 75.4527 115.448 74.3412V74.1818C115.448 73.0704 114.547 72.1694 113.436 72.1694Z" fill="white"/>
<path d="M86.6956 25.9228C83.0094 22.137 78.1875 20.8817 75.0194 21.8381C71.6719 22.8344 69.4204 25.5044 69.4204 25.5044C69.3207 25.6438 69.2211 25.7435 69.1813 25.8032C68.6632 26.4408 66.571 29.2105 66.591 33.1955C66.6308 39.2329 71.4926 42.7596 72.0106 43.1382C73.0069 41.2254 74.2223 39.1731 75.7566 37.061C79.383 32 83.4079 28.4134 86.6956 25.9427V25.9228Z" fill="white"/>
<path d="M144.12 25.9228C147.806 22.137 152.628 20.8817 155.796 21.8381C159.144 22.8344 161.395 25.5044 161.395 25.5044C161.495 25.6438 161.595 25.7435 161.634 25.8032C162.152 26.4408 164.245 29.2105 164.225 33.1955C164.185 39.2329 159.323 42.7596 158.805 43.1382C157.809 41.2254 156.593 39.1731 155.059 37.061C151.433 32 147.408 28.4134 144.12 25.9427V25.9228Z" fill="white"/>
<path d="M81.3346 83.726C81.3346 83.726 61.8477 82.4707 53.4592 99.8256C45.0706 117.181 52.2039 136.149 69.3795 148.682C86.5551 161.215 97.2549 160.319 97.2549 160.319C97.2549 160.319 109.828 159.94 113.813 152.966C117.798 145.993 116.323 140.812 112.976 134.894C109.629 128.996 93.9075 113.773 94.7444 108.055C95.5812 102.336 81.3346 83.726 81.3346 83.726Z" fill="#131313"/>
<path d="M138.72 177.474C138.72 177.474 135.87 169.166 121.146 168.927C106.421 168.687 97.2154 176.697 96.3586 187.298C95.5018 197.898 98.112 216.907 111.88 224.02C125.649 231.153 148.463 223.064 148.463 223.064C148.463 223.064 183.133 212.842 184.09 180.324C185.046 147.806 179.806 149.918 179.806 149.918L138.72 177.474Z" fill="#131313"/>
<path d="M113.494 275.626C113.494 275.626 110.685 264.189 122.381 258.809C122.381 258.809 117.021 269.31 117.678 274.929C117.678 274.929 122.042 266.56 128.597 267.258C128.597 267.258 117.559 275.985 117.3 281.086C117.041 286.187 113.494 275.626 113.494 275.626Z" fill="#427C3A"/>
<path d="M116.782 283.178C116.224 283.178 115.088 282.6 112.817 275.846V275.786C112.777 275.666 109.987 263.711 122.082 258.152L123.935 257.295L123.019 259.108C123.019 259.108 119.073 266.879 118.436 272.418C120.289 269.868 123.895 266.022 128.697 266.54L130.411 266.72L129.056 267.796C126.067 270.167 118.237 277.181 118.037 281.106C117.997 281.724 117.938 283.039 116.981 283.158C116.941 283.158 116.882 283.158 116.802 283.158L116.782 283.178ZM114.172 275.427C114.909 277.639 115.925 280.13 116.583 281.245C116.583 281.186 116.583 281.106 116.583 281.046C116.802 276.882 123.397 270.745 126.525 268.035C121.604 268.991 118.316 275.168 118.276 275.248L117.22 277.28L116.961 275.009C116.463 270.685 119.273 263.771 120.807 260.423C112.06 265.664 113.992 274.75 114.152 275.447L114.172 275.427Z" fill="#231F20"/>
<path d="M76.8718 277.818C77.6091 276.125 76.7921 274.032 82.0126 270.924C84.6626 269.35 84.4235 267.198 88.1495 266.859C91.8756 266.521 94.6253 268.194 97.7735 268.274C100.922 268.354 107.059 267.856 109.39 270.506C111.721 273.156 115.029 275.068 116.603 278.217C118.177 281.365 118.595 284.433 116.105 286.346C113.614 288.259 110.207 287.263 107.318 288.259C104.409 289.255 102.675 290.252 98.2716 290.331C93.8681 290.411 89.2255 287.004 86.8345 286.765C83.8058 286.446 80.5182 285.609 77.8681 283.696C77.4297 283.377 76.6726 282.78 76.3139 281.783C76.015 280.927 75.9951 279.851 76.8718 277.818Z" fill="#818385"/>
<path d="M98.1321 291.049C95.3425 291.049 92.5132 289.773 90.2218 288.757C88.8071 288.12 87.5916 287.562 86.7747 287.482C83.0088 287.083 79.8805 286.007 77.4696 284.274C76.8917 283.856 76.0748 283.178 75.6564 282.022C75.218 280.807 75.3973 279.472 76.2342 277.519C76.3737 277.201 76.4534 276.862 76.5331 276.463C76.8917 274.869 77.3301 272.877 81.6539 270.306C82.5704 269.768 83.1084 269.151 83.6265 268.533C84.543 267.477 85.4995 266.381 88.0897 266.142C90.3413 265.943 92.2143 266.421 94.0076 266.879C95.3027 267.198 96.5181 267.517 97.7934 267.557C98.2716 267.557 98.8295 267.557 99.4272 267.557C102.934 267.557 107.736 267.557 109.928 270.027C110.745 270.964 111.741 271.841 112.697 272.697C114.411 274.212 116.184 275.786 117.24 277.898C119.771 282.959 118.257 285.589 116.543 286.904C114.889 288.159 112.937 288.279 111.044 288.399C109.808 288.478 108.633 288.538 107.537 288.917C106.999 289.096 106.521 289.275 106.042 289.455C103.871 290.252 101.978 290.949 98.2915 291.029C98.2317 291.029 98.1719 291.029 98.1122 291.029L98.1321 291.049ZM89.1458 267.537C88.8469 267.537 88.5281 267.537 88.2292 267.577C86.1968 267.756 85.5792 268.473 84.7024 269.489C84.1246 270.147 83.487 270.884 82.3911 271.542C78.5854 273.793 78.2267 275.387 77.9279 276.782C77.8282 277.22 77.7286 277.659 77.5493 278.097C76.6925 280.09 76.7921 280.946 76.9914 281.544C77.2703 282.321 77.8681 282.819 78.3064 283.138C80.5181 284.732 83.4073 285.709 86.9341 286.087C87.9901 286.187 89.3052 286.785 90.8195 287.482C93.0113 288.478 95.761 289.694 98.2915 289.654C101.758 289.594 103.452 288.956 105.584 288.179C106.062 288 106.58 287.821 107.118 287.621C108.394 287.183 109.709 287.103 110.984 287.024C112.737 286.924 114.391 286.824 115.706 285.808C117.579 284.374 117.679 281.923 116.005 278.555C115.069 276.682 113.475 275.288 111.781 273.793C110.785 272.917 109.768 272.02 108.872 271.004C107.118 269.011 102.516 269.011 99.4472 269.011C98.8295 269.011 98.2716 269.011 97.7734 269.011C96.3388 268.971 94.9839 268.633 93.6888 268.294C92.2541 267.935 90.7996 267.557 89.1657 267.557L89.1458 267.537Z" fill="#231F20"/>
<path d="M29.0113 63.2827C29.0113 63.2827 26.3413 50.3512 18.4908 55.0735C18.4908 55.0735 15.7211 57.6638 19.3874 64C19.7261 64.7572 20.0648 65.6139 20.3837 66.5504C20.7423 67.5865 21.0213 68.5828 21.2205 69.4794C19.2081 69.8779 17.7934 70.675 17.0163 71.2129C15.8407 72.0299 14.685 72.8269 14.3064 74.2814C14.0076 75.4371 14.2467 76.8319 14.9241 77.6289C16.3787 79.3624 20.6228 78.9838 25.2056 76.1943C25.5244 76.8717 27.4771 81.0162 30.8046 82.0124C31.2629 82.1519 32.1794 82.4309 33.2753 82.132C34.4708 81.8132 35.4073 80.9564 35.8058 80.1992C36.7423 78.4259 35.7261 75.4172 32.8967 73.4246C34.0125 72.8667 40.7074 69.3997 41.4048 64.4383C41.5244 63.6413 41.7635 61.9278 40.7074 60.7522C39.8307 59.7758 38.4957 59.6762 37.6589 59.6164C33.6738 59.3773 30.2666 62.1469 29.0113 63.2827Z" fill="#F58220"/>
<path d="M32.2788 82.9489C31.5416 82.9489 30.9438 82.7696 30.6051 82.67C27.6761 81.8132 25.7633 78.7846 24.9065 77.1706C20.4432 79.6812 16.0995 80.0797 14.3859 78.0672C13.5889 77.1308 13.2701 75.4969 13.6288 74.1021C14.0671 72.3686 15.3623 71.4919 16.6176 70.6152C17.7533 69.8381 19.0086 69.2802 20.3635 68.9215C20.1842 68.1843 19.965 67.467 19.706 66.7497C19.427 65.9327 19.1082 65.0959 18.7496 64.2989C14.8841 57.5841 17.8728 54.675 18.0123 54.5355L18.1319 54.4558C20.1842 53.2204 22.097 52.9813 23.8504 53.7584C27.1381 55.193 28.8118 59.8356 29.4295 62.0075C31.3025 60.5131 34.3112 58.7198 37.7184 58.8991C38.5752 58.939 40.1692 59.0386 41.2651 60.274C42.5204 61.6887 42.2415 63.6812 42.1219 64.5181C41.5242 68.8817 36.7022 72.1096 34.1916 73.5243C36.503 75.5965 37.4793 78.5056 36.4432 80.4981C35.8853 81.5542 34.7097 82.4707 33.4743 82.7895C33.0559 82.9091 32.6574 82.9489 32.2987 82.9489H32.2788ZM25.5242 75.1582L25.8629 75.8755C26.2016 76.6326 28.0746 80.4384 31.0235 81.3151C31.442 81.4346 32.219 81.6737 33.1157 81.4346C34.1119 81.1756 34.889 80.4583 35.2078 79.8605C35.9451 78.4658 35.1281 75.8356 32.5179 74.0025L31.5615 73.325L32.6176 72.787C34.371 71.9103 40.1493 68.6824 40.7471 64.3387C40.8467 63.6214 41.0459 62.1469 40.229 61.2105C39.5316 60.4334 38.356 60.3537 37.6586 60.3138C34.1518 60.1146 31.0634 62.406 29.5291 63.8007L28.6126 64.6177L28.3535 63.4222C28.3535 63.4222 26.899 56.6276 23.3124 55.0535C22.0173 54.4757 20.5827 54.675 18.9687 55.6314C18.6699 55.9701 16.9563 58.3014 20.0248 63.6413L20.0646 63.7011C20.4432 64.5579 20.7819 65.4346 21.1007 66.3113C21.4395 67.2877 21.7184 68.3039 21.9575 69.32L22.1169 70.0374L21.3996 70.1768C19.9451 70.4558 18.63 71.0137 17.4544 71.8107C16.3187 72.5878 15.3423 73.2653 15.0235 74.4807C14.7844 75.4371 14.9837 76.5928 15.5017 77.1905C16.6375 78.5255 20.4631 78.3063 24.8666 75.6164L25.5441 75.198L25.5242 75.1582Z" fill="#231F20"/>
<path d="M196.604 16.1594C196.604 16.1594 194.512 6.13699 196.604 3.28767C198.696 0.438357 200.828 0.418432 202.98 1.01619C205.132 1.61395 207.383 6.13699 207.383 9.12578C207.383 12.1146 201.525 17.3549 201.525 17.3549L196.604 16.1594Z" fill="#EE2D7B"/>
<path d="M201.724 18.1121L196.005 16.7372L195.906 16.2989C195.687 15.2428 193.814 5.89788 196.025 2.86924C198.456 -0.45828 201.106 -0.239102 203.159 0.338731C205.689 1.03612 208.08 5.87796 208.08 9.12578C208.08 12.3736 202.621 17.3151 201.983 17.873L201.704 18.1121H201.724ZM197.201 15.5816L201.325 16.5778C203.039 14.9838 206.665 11.198 206.665 9.12578C206.665 6.33624 204.474 2.17186 202.78 1.69365C200.708 1.11582 198.954 1.23537 197.161 3.68618C195.687 5.71856 196.623 12.5729 197.201 15.5616V15.5816Z" fill="#231F20"/>
<path d="M196.683 16.6775C196.683 16.6775 202.76 2.84931 208.957 2.49065C215.153 2.132 217.544 5.599 217.066 12.0349C216.588 18.4707 211.587 21.5392 211.587 21.5392C211.587 21.5392 218.023 19.7858 220.414 22.6351C222.805 25.4844 221.729 27.6364 221.011 28.4732C220.294 29.3101 214.815 32.0398 209.933 30.5056C205.051 28.9714 197.42 19.6662 196.703 16.6775H196.683Z" fill="#EE2D7B"/>
<path d="M213.081 31.6812C211.966 31.6812 210.83 31.5417 209.694 31.1831C204.514 29.5492 196.743 19.9851 195.986 16.8568L195.926 16.6177L196.025 16.3985C196.284 15.8207 202.362 2.17186 208.917 1.79328C211.906 1.61395 214.157 2.31133 215.672 3.82565C217.365 5.55915 218.063 8.24907 217.784 12.0946C217.485 16.0598 215.612 18.7895 214.058 20.4035C216.289 20.1644 219.358 20.2839 220.972 22.2167C223.283 25.0062 222.805 27.5367 221.57 28.9714C220.932 29.7086 217.246 31.721 213.121 31.721L213.081 31.6812ZM197.42 16.7372C198.397 19.726 205.629 28.4134 210.113 29.8481C214.695 31.3026 219.876 28.7123 220.454 28.0349C220.872 27.5567 222.068 25.7634 219.856 23.1133C218.142 21.061 213.44 21.7783 211.766 22.2366L207.004 23.5318L211.208 20.9614C211.208 20.9614 215.911 17.9925 216.349 12.0149C216.588 8.6675 216.03 6.25654 214.656 4.84184C213.46 3.6264 211.547 3.08842 208.997 3.2279C204.354 3.48692 199.174 12.8717 197.42 16.7572V16.7372Z" fill="#231F20"/>
<path d="M196.344 17.2951C191.342 14.6849 187.576 5.75841 187.417 5.37983L188.712 4.84184C188.712 4.84184 192.438 13.6687 197.001 16.0399L196.344 17.2951Z" fill="#231F20"/>
<path d="M194.132 17.6737C187.597 17.6737 183.353 12.1146 183.153 11.8555L184.289 11.0187C184.289 11.0187 189.33 17.594 196.443 16.0199L196.742 17.3948C195.846 17.594 194.969 17.6936 194.132 17.6936V17.6737Z" fill="#231F20"/>
<path d="M24.7675 79.6812C24.7675 79.6812 24.6081 79.6812 24.5085 79.6414C23.8908 79.4222 24.0104 78.7447 24.0701 78.5056L24.11 78.2864C25.0266 73.1856 26.8198 64.2391 28.633 61.6887C28.912 61.2902 29.2507 61.2503 29.4699 61.3101L29.8086 61.3699L29.988 61.7086C30.6256 63.0037 25.6442 78.8045 25.5845 78.944C25.4649 79.1831 25.2258 79.6812 24.7675 79.6812Z" fill="#231F20"/>
<path d="M29.9873 61.1706L28.6523 60.7323C29.7482 57.345 28.6922 51.0685 28.6922 50.9888L30.087 50.7497C30.1268 51.0286 31.2028 57.4247 30.0073 61.1507L29.9873 61.1706Z" fill="#231F20"/>
<path d="M29.7083 62.1071L28.9512 60.9116C32.4381 58.6999 32.9362 53.5392 32.9362 53.4795L34.3509 53.599C34.331 53.8381 33.793 59.4969 29.7083 62.1071Z" fill="#231F20"/>
<path d="M34.0726 54.6949C33.0365 54.6949 32.1797 53.9178 32.1797 52.9813C32.1797 52.0448 33.0365 51.2677 34.0726 51.2677C35.1087 51.2677 35.9655 52.0448 35.9655 52.9813C35.9655 53.9178 35.1087 54.6949 34.0726 54.6949ZM34.0726 52.6625C33.7936 52.6625 33.5944 52.8219 33.5944 52.9614C33.5944 53.1009 33.7936 53.2603 34.0726 53.2603C34.3515 53.2603 34.5508 53.1009 34.5508 52.9614C34.5508 52.8219 34.3515 52.6625 34.0726 52.6625Z" fill="#231F20"/>
<path d="M29.0511 51.5865C28.015 51.5865 27.1582 50.8095 27.1582 49.873C27.1582 48.9365 28.015 48.1594 29.0511 48.1594C30.0872 48.1594 30.944 48.9365 30.944 49.873C30.944 50.8095 30.0872 51.5865 29.0511 51.5865ZM29.0511 49.5542C28.7722 49.5542 28.5729 49.7136 28.5729 49.853C28.5729 49.9925 28.7722 50.1519 29.0511 50.1519C29.3301 50.1519 29.5293 49.9925 29.5293 49.853C29.5293 49.7136 29.3301 49.5542 29.0511 49.5542Z" fill="#231F20"/>
<path d="M183.731 12.3736C182.695 12.3736 181.838 11.5965 181.838 10.66C181.838 9.72354 182.695 8.94646 183.731 8.94646C184.767 8.94646 185.624 9.72354 185.624 10.66C185.624 11.5965 184.767 12.3736 183.731 12.3736ZM183.731 10.3412C183.452 10.3412 183.253 10.5006 183.253 10.6401C183.253 10.7796 183.452 10.939 183.731 10.939C184.01 10.939 184.209 10.7796 184.209 10.6401C184.209 10.5006 184.01 10.3412 183.731 10.3412Z" fill="#231F20"/>
<path d="M188.075 6.05729C187.038 6.05729 186.182 5.2802 186.182 4.34372C186.182 3.40723 187.038 2.63014 188.075 2.63014C189.111 2.63014 189.967 3.40723 189.967 4.34372C189.967 5.2802 189.111 6.05729 188.075 6.05729ZM188.075 4.04484C187.796 4.04484 187.596 4.20424 187.596 4.34372C187.596 4.48319 187.796 4.6426 188.075 4.6426C188.353 4.6426 188.553 4.48319 188.553 4.34372C188.553 4.20424 188.353 4.04484 188.075 4.04484Z" fill="#231F20"/>
<path d="M31.3496 62.5979C31.6426 61.7794 31.0233 60.8092 29.9665 60.431C28.9096 60.0529 27.8155 60.4098 27.5225 61.2283C27.2296 62.0468 27.8489 63.017 28.9057 63.3952C29.9626 63.7733 31.0567 63.4164 31.3496 62.5979Z" fill="#231F20"/>
<path d="M197.241 75.736C197.241 75.736 197.201 75.6563 197.181 75.6164C197.301 75.7559 197.181 75.5766 197.141 75.5168C197.061 75.3375 196.982 75.1582 196.902 74.9589L196.145 73.2453L194.352 69.2204L193.415 67.0884C192.997 66.132 192.479 64.9166 191.203 65.614C188.952 66.8692 186.78 68.264 184.568 69.5791C183.931 69.9577 182.775 70.396 182.636 71.213C182.536 71.7709 182.914 72.3487 183.134 72.8269L183.692 74.0623L186.421 80.2391C184.708 80.3786 182.895 81.873 183.074 83.6862C183.273 85.7385 185.764 85.6588 187.079 84.7821C187.856 84.264 188.494 83.467 188.653 82.5504C188.713 82.1719 188.693 81.7734 188.573 81.4346C188.513 81.2951 188.434 81.1756 188.374 81.056C188.374 81.056 188.374 80.9963 188.354 80.9763C187.896 80.0199 187.497 79.0237 187.059 78.0673L185.485 74.5206C185.325 74.1619 185.106 73.8431 185.425 73.4446C185.584 73.2453 186.023 73.0859 186.242 72.9465C187.438 72.2291 188.613 71.5318 189.809 70.8145C190.586 70.3362 191.383 69.7385 192.22 69.3798C192.837 69.1009 192.997 69.7385 193.176 70.1569L194.053 72.1096L195.248 74.8194C193.993 74.9191 192.797 75.7161 192.2 76.8518C191.682 77.868 191.781 79.2229 192.917 79.7808C195.149 80.8966 198.556 77.9876 197.221 75.6961L197.241 75.736Z" fill="#131313"/>
<path d="M213.5 86.655C213.5 86.655 213.539 86.5953 213.559 86.5753C214.715 84.8817 214.077 82.7098 212.483 81.5542C211.985 81.1955 211.527 80.797 211.168 80.2789C210.909 79.9004 210.75 79.5019 210.531 79.1034C210.132 78.406 209.196 78.5654 209.056 79.3624C208.917 80.1395 208.937 80.9763 208.877 81.7733L208.538 86.2964L208.359 88.6276C207.024 87.8306 205.171 87.9502 203.876 88.7472C202.74 89.4246 201.903 90.8194 202.6 92.1146C204.035 94.7646 209.475 93.7883 209.614 90.6799C209.614 90.66 209.614 90.6401 209.614 90.6002L209.993 85.5392C209.993 85.32 209.993 85.0809 210.033 84.8817C210.172 84.005 211.168 83.5865 211.826 84.264C212.184 84.6227 212.284 85.1208 212.304 85.6189C212.304 85.8779 212.224 86.1968 212.304 86.4558C212.483 86.9738 213.081 87.0137 213.46 86.6949C213.46 86.6949 213.46 86.6949 213.48 86.675L213.5 86.655Z" fill="#131313"/>
<path d="M237.908 152.289C237.908 152.289 237.908 152.229 237.908 152.189C237.908 152.329 237.908 152.169 237.948 152.11C237.988 151.95 238.028 151.811 238.068 151.651L238.446 150.217L239.323 146.809L239.781 145.016C239.98 144.219 240.279 143.183 239.143 143.004C237.111 142.665 235.059 142.466 233.026 142.207C232.449 142.127 231.512 141.828 231.014 142.267C230.675 142.565 230.635 143.123 230.516 143.522L230.237 144.578L228.882 149.778C227.786 149.041 226.073 149.061 225.196 150.097C224.259 151.213 225.256 152.488 226.431 152.827C227.686 153.205 229.42 152.727 229.699 151.313C229.739 151.113 229.699 151.313 229.739 151.133C229.779 150.974 229.818 150.834 229.858 150.675L230.237 149.24L230.835 146.909C233.166 147.228 235.517 147.527 237.848 147.846L237.091 150.775C236.254 150.217 235.119 150.117 234.182 150.536C233.345 150.914 232.747 151.811 233.166 152.707C234.003 154.501 237.569 154.381 237.888 152.289H237.908ZM231.691 145.036C231.891 145.036 232.13 145.096 232.329 145.116C233.146 145.215 233.963 145.335 234.78 145.435C235.597 145.534 236.414 145.654 237.231 145.753C237.43 145.773 237.649 145.793 237.848 145.833C238.187 145.913 238.247 146.132 238.227 146.391C235.896 146.072 233.564 145.773 231.213 145.455C231.273 145.235 231.393 145.036 231.691 145.016V145.036Z" fill="#131313"/>
<path d="M92.0752 216.807V232.528C92.0752 233.664 93.8485 233.664 93.8485 232.528V216.807C93.8485 215.671 92.0752 215.671 92.0752 216.807Z" fill="#231F20"/>
<path d="M92.9519 240.837C92.8921 242.63 92.653 244.882 92.0353 247.392C91.4575 249.664 90.7202 251.577 90.0029 253.091" fill="#131313"/>
<path d="M92.0749 240.837C91.9354 244.902 90.9591 248.927 89.2455 252.633C88.7673 253.649 90.2816 254.545 90.7598 253.529C92.6328 249.544 93.6888 245.24 93.8482 240.857C93.8881 239.721 92.1148 239.721 92.0749 240.857V240.837Z" fill="#231F20"/>
<path d="M184.947 199.273C183.313 200.05 181.221 200.867 178.71 201.445C176.439 201.983 174.387 202.182 172.713 202.242" fill="#131313"/>
<path d="M184.488 198.516C180.802 200.249 176.777 201.225 172.693 201.365C171.557 201.405 171.557 203.178 172.693 203.138C177.096 202.979 181.38 201.923 185.365 200.05C186.401 199.572 185.505 198.037 184.468 198.535L184.488 198.516Z" fill="#231F20"/>
<path d="M196.304 261.559C193.036 259.168 190.565 255.761 189.29 251.915C188.931 250.839 187.238 251.298 187.596 252.394C189.031 256.697 191.761 260.423 195.427 263.093C195.806 263.372 196.403 263.153 196.643 262.775C196.902 262.336 196.702 261.858 196.324 261.559H196.304Z" fill="#231F20"/>
<path d="M165.001 227.806V249.724C165.001 250.859 166.774 250.859 166.774 249.724V227.806C166.774 226.67 165.001 226.67 165.001 227.806Z" fill="#231F20"/>
<path d="M169.963 260.882C169.106 260.184 168.429 259.427 167.911 258.471C167.353 257.395 167.134 256.239 167.134 255.063C167.134 253.888 165.38 253.928 165.36 255.063C165.36 257.833 166.536 260.403 168.688 262.137C169.066 262.436 169.565 262.496 169.943 262.137C170.262 261.818 170.322 261.181 169.943 260.882H169.963Z" fill="#231F20"/>
<path d="M200.807 138.401L196.543 139.537L198.535 147.108C198.854 147.228 199.751 147.507 200.847 147.228C201.943 146.949 202.58 146.252 202.8 145.993L200.807 138.421V138.401Z" fill="#2D1F14" stroke="#231F20" stroke-width="0.75" stroke-miterlimit="10"/>
<path d="M135.651 109.748C145.753 115.806 154.819 139.158 150.077 156.194C149.36 158.745 148.025 163.367 144 167.213C143.043 168.11 140.074 170.899 135.452 171.975C132.065 172.772 128.717 172.433 127.86 172.334C126.366 172.154 125.19 171.875 122.779 171.716C122.779 171.716 120.687 171.577 118.695 171.636C115.108 171.736 110.485 172.653 106.839 174.027C99.5066 176.817 99.7656 180.125 91.6361 184.966C88.4082 186.879 82.331 189.948 74.4207 190.924C71.0334 191.342 64.8765 192.139 58.7594 189.908C43.6162 184.428 38.336 165.061 37.0608 160.379C35.5066 154.66 31.0433 138.321 40.0097 124.493C45.9076 115.407 54.8341 111.98 57.544 110.984C65.9126 107.895 73.5838 108.672 76.0944 108.951C79.3621 109.31 86.9935 110.565 93.6685 112.418C94.8042 112.737 97.5539 113.514 101.3 113.674C102.794 113.733 105.006 113.813 107.536 113.295C113.016 112.139 113.375 109.43 119.213 107.636C123.218 106.401 126.346 106.66 127.023 106.72C127.023 106.72 131.327 107.118 135.671 109.729L135.651 109.748Z" fill="#A98B68"/>
<path d="M67.9849 192.12C65.0958 192.12 61.8081 191.781 58.5204 190.585C51.4669 188.035 41.8828 180.742 36.3635 160.578C30.2465 138.202 37.1406 127.601 39.3922 124.115C43.4569 117.858 49.4744 113.215 57.2851 110.326C63.0435 108.194 69.3996 107.497 76.1543 108.254C79.442 108.633 87.1531 109.888 93.828 111.741H93.9077C95.0435 112.08 97.7334 112.817 101.3 112.976C102.735 113.036 104.926 113.116 107.357 112.618C110.067 112.04 111.422 111.103 112.976 110.007C114.411 109.011 116.065 107.856 118.954 106.979C122.779 105.803 125.888 105.943 127.043 106.042C127.223 106.042 131.547 106.501 135.97 109.151C146.51 115.447 155.557 138.959 150.715 156.394C150.057 158.765 148.682 163.686 144.438 167.731C141.808 170.242 138.819 171.915 135.571 172.672C132.284 173.45 128.996 173.191 127.741 173.051C127.223 172.991 126.745 172.912 126.227 172.832C125.29 172.692 124.254 172.533 122.68 172.433C122.66 172.433 120.588 172.294 118.655 172.354C115.088 172.453 110.525 173.39 107.038 174.705C103.173 176.179 101.539 177.753 99.4669 179.746C97.7135 181.44 95.7209 183.352 91.9551 185.604C88.1892 187.856 82.092 190.725 74.4607 191.661H74.3411C72.7471 191.88 70.4955 192.139 67.9252 192.139L67.9849 192.12ZM70.9737 109.37C66.3112 109.37 61.8878 110.127 57.7832 111.661C50.2714 114.451 44.493 118.894 40.5877 124.892C31.7807 138.441 36.1045 154.262 37.7184 160.219C43.0783 179.806 52.244 186.839 58.9787 189.27C64.8766 191.402 70.9339 190.665 74.2016 190.247H74.3212C81.6935 189.33 87.5914 186.54 91.2577 184.369C94.8841 182.217 96.8168 180.344 98.5105 178.71C100.603 176.677 102.416 174.944 106.56 173.37C110.187 171.995 114.929 171.039 118.635 170.919C120.647 170.859 122.7 170.999 122.799 170.999C124.413 171.098 125.509 171.278 126.446 171.417C126.944 171.497 127.402 171.557 127.9 171.616C129.076 171.756 132.164 171.995 135.253 171.258C138.261 170.56 141.011 169.006 143.462 166.675C147.427 162.889 148.742 158.227 149.36 155.975C153.923 139.537 145.275 116.324 135.253 110.326C131.108 107.856 126.944 107.417 126.904 107.417C125.828 107.318 122.939 107.198 119.372 108.294C116.682 109.131 115.208 110.147 113.773 111.143C112.159 112.279 110.625 113.335 107.636 113.973C105.026 114.531 102.735 114.431 101.22 114.371C97.4943 114.212 94.7047 113.455 93.5092 113.116H93.4295C86.8343 111.263 79.2228 110.007 75.975 109.649C74.2614 109.45 72.5877 109.37 70.9339 109.37H70.9737Z" fill="#231F20"/>
<path d="M225.455 108.135C225.455 108.135 235.039 118.257 229.798 130.57C229.798 130.57 229.32 131.387 222.526 133.719C215.731 136.05 216.568 108.115 216.568 108.115C216.568 108.115 224.737 107.258 225.474 108.115L225.455 108.135Z" fill="#47311B"/>
<path d="M221.729 134.555C221.131 134.555 220.573 134.356 220.055 133.998C215.313 130.511 215.771 110.386 215.831 108.095V107.477L216.469 107.417C222.068 106.839 225.256 106.919 225.953 107.656C226.053 107.756 235.796 118.257 230.416 130.849L230.376 130.929C229.838 131.826 225.355 133.479 222.725 134.396C222.386 134.516 222.048 134.575 221.709 134.575L221.729 134.555ZM217.246 108.752C217.106 115.168 217.505 130.371 220.912 132.862C221.33 133.181 221.769 133.24 222.307 133.061C227.607 131.228 228.942 130.371 229.221 130.152C233.983 118.755 225.455 109.151 224.977 108.633C224.299 108.294 220.593 108.433 217.246 108.752Z" fill="#231F20"/>
<path d="M121.942 130.491C140.094 127.004 158.246 123.517 176.398 120.03C176.398 120.03 182.216 119.034 184.807 116.065C186.5 114.112 186.6 112.976 187.457 112.179C188.313 111.362 189.35 111.243 189.808 111.123C200.767 108.354 214.296 108.174 216.209 108.135C216.647 108.135 217.743 108.115 218.998 108.633C219.955 109.031 220.632 109.629 221.071 110.047C222.107 111.362 223.203 112.996 224.119 115.009C227.048 121.524 226.172 127.721 225.554 130.57C225.474 130.869 225.295 131.308 224.976 131.806C224.079 133.161 222.645 133.679 222.087 133.878C217.424 135.592 215.073 136.448 198.396 140.932C197.678 141.131 195.785 141.669 193.753 140.932C193.195 140.732 192.777 140.493 192.558 140.354C190.944 139.577 189.529 139.218 188.533 139.019C186.002 138.54 183.93 138.78 182.615 138.919C181.698 139.039 180.921 139.178 180.403 139.298C161.952 143.143 143.482 146.989 125.031 150.834C124.015 144.04 122.978 137.245 121.962 130.451L121.942 130.491Z" fill="#5C3E1E"/>
<path d="M124.433 151.711L121.146 129.933L176.279 119.332C176.279 119.332 181.898 118.336 184.289 115.587C185.165 114.57 185.604 113.773 185.943 113.156C186.241 112.578 186.52 112.1 186.979 111.661C187.875 110.824 188.891 110.605 189.449 110.466L189.649 110.426C199.551 107.935 211.487 107.497 216.169 107.417C216.687 107.417 217.903 107.397 219.278 107.975C220.114 108.334 220.891 108.852 221.569 109.549L221.629 109.609C222.884 111.183 223.94 112.917 224.757 114.73C227.507 120.847 227.088 126.804 226.251 130.73C226.092 131.288 225.853 131.766 225.574 132.204C224.558 133.758 222.964 134.336 222.346 134.555C217.644 136.269 215.292 137.126 198.575 141.649C197.758 141.868 195.706 142.426 193.514 141.649C193.056 141.489 192.617 141.27 192.199 141.031C190.964 140.433 189.688 140.015 188.373 139.776C185.903 139.298 183.87 139.557 182.675 139.696C181.957 139.776 181.24 139.915 180.543 140.055L124.433 151.751V151.711ZM122.74 131.049L125.589 150.017L180.224 138.64C180.961 138.481 181.738 138.341 182.495 138.262C183.691 138.122 185.943 137.843 188.632 138.361C190.067 138.64 191.482 139.098 192.837 139.756L192.896 139.796C193.235 140.015 193.594 140.174 193.972 140.314C195.766 140.951 197.439 140.493 198.157 140.314C214.854 135.811 217.185 134.954 221.828 133.26C222.366 133.061 223.601 132.603 224.378 131.447C224.578 131.128 224.757 130.79 224.857 130.411C225.634 126.745 226.052 121.106 223.442 115.328C222.685 113.634 221.688 112.02 220.513 110.545C219.975 110.007 219.357 109.589 218.7 109.31C217.604 108.832 216.627 108.852 216.209 108.872C211.547 108.951 199.731 109.37 189.967 111.821L189.728 111.88C189.25 111.98 188.533 112.139 187.915 112.717C187.616 112.996 187.417 113.355 187.158 113.853C186.779 114.55 186.321 115.427 185.325 116.563C182.595 119.691 176.757 120.727 176.498 120.767L122.72 131.108L122.74 131.049Z" fill="#231F20"/>
<path d="M113.554 155.816C121.532 155.816 128 149.348 128 141.37C128 133.392 121.532 126.924 113.554 126.924C105.576 126.924 99.1084 133.392 99.1084 141.37C99.1084 149.348 105.576 155.816 113.554 155.816Z" fill="#2D1F14"/>
<path d="M113.514 156.533C110.705 156.533 107.935 155.736 105.504 154.222C102.077 152.07 99.6863 148.722 98.7897 144.777C96.9167 136.648 102.037 128.498 110.167 126.645C118.316 124.772 126.446 129.893 128.299 138.022C129.196 141.968 128.518 146.032 126.366 149.46C124.214 152.887 120.867 155.278 116.922 156.174C115.786 156.433 114.65 156.553 113.514 156.553V156.533ZM113.554 127.641C112.538 127.641 111.522 127.761 110.486 127.98C103.113 129.674 98.4709 137.046 100.165 144.438C100.981 148.005 103.153 151.054 106.262 153.006C109.37 154.959 113.056 155.577 116.623 154.76C120.189 153.943 123.238 151.771 125.191 148.663C127.143 145.554 127.761 141.868 126.944 138.301C125.49 131.945 119.811 127.641 113.554 127.641Z" fill="#231F20"/>
<path d="M214.097 116.403C215.054 116.403 215.83 115.627 215.83 114.67C215.83 113.713 215.054 112.936 214.097 112.936C213.139 112.936 212.363 113.713 212.363 114.67C212.363 115.627 213.139 116.403 214.097 116.403Z" fill="#D1D3D4"/>
<path d="M214.097 117.101C212.981 117.101 211.985 116.324 211.726 115.208C211.427 113.893 212.264 112.598 213.559 112.299C214.196 112.159 214.834 112.279 215.392 112.618C215.95 112.956 216.328 113.514 216.468 114.132C216.767 115.447 215.93 116.742 214.635 117.041C214.455 117.081 214.276 117.101 214.097 117.101ZM214.097 113.654C214.097 113.654 213.937 113.654 213.878 113.674C213.32 113.793 212.981 114.351 213.101 114.889C213.22 115.447 213.778 115.786 214.316 115.666C214.874 115.547 215.213 114.989 215.093 114.451C215.033 114.192 214.874 113.953 214.635 113.813C214.475 113.714 214.276 113.654 214.097 113.654Z" fill="#231F20"/>
<path d="M217.285 130.65C218.243 130.65 219.019 129.874 219.019 128.917C219.019 127.959 218.243 127.183 217.285 127.183C216.328 127.183 215.552 127.959 215.552 128.917C215.552 129.874 216.328 130.65 217.285 130.65Z" fill="#D1D3D4"/>
<path d="M217.285 131.347C216.827 131.347 216.389 131.228 215.99 130.969C215.432 130.63 215.054 130.072 214.914 129.455C214.615 128.139 215.452 126.844 216.747 126.545C218.062 126.247 219.357 127.083 219.656 128.379C219.955 129.694 219.118 130.989 217.823 131.288C217.644 131.328 217.465 131.347 217.285 131.347ZM217.285 127.9C217.285 127.9 217.146 127.9 217.066 127.92C216.508 128.04 216.169 128.598 216.289 129.136C216.349 129.395 216.508 129.634 216.747 129.773C216.986 129.913 217.245 129.973 217.524 129.913C218.082 129.793 218.421 129.235 218.301 128.697C218.202 128.219 217.763 127.9 217.305 127.9H217.285Z" fill="#231F20"/>
<path d="M204.493 116.961C205.451 116.961 206.227 116.185 206.227 115.228C206.227 114.271 205.451 113.494 204.493 113.494C203.536 113.494 202.76 114.271 202.76 115.228C202.76 116.185 203.536 116.961 204.493 116.961Z" fill="#D1D3D4"/>
<path d="M204.493 117.659C203.377 117.659 202.381 116.882 202.122 115.766C201.823 114.451 202.66 113.156 203.955 112.857C205.27 112.558 206.565 113.395 206.864 114.69C207.163 116.005 206.326 117.3 205.031 117.599C204.852 117.639 204.673 117.659 204.493 117.659ZM204.493 114.192C204.493 114.192 204.354 114.192 204.274 114.212C203.716 114.331 203.377 114.889 203.497 115.427C203.617 115.985 204.174 116.324 204.712 116.204C205.27 116.085 205.609 115.527 205.49 114.989C205.39 114.511 204.952 114.192 204.493 114.192Z" fill="#231F20"/>
<path d="M208.259 133.519C209.216 133.519 209.992 132.743 209.992 131.786C209.992 130.828 209.216 130.052 208.259 130.052C207.301 130.052 206.525 130.828 206.525 131.786C206.525 132.743 207.301 133.519 208.259 133.519Z" fill="#D1D3D4"/>
<path d="M208.259 134.217C207.801 134.217 207.362 134.097 206.964 133.838C206.406 133.499 206.027 132.941 205.888 132.324C205.748 131.686 205.848 131.049 206.206 130.491C206.545 129.933 207.103 129.554 207.721 129.415C208.358 129.275 208.996 129.395 209.554 129.733C210.112 130.072 210.49 130.63 210.63 131.248C210.769 131.885 210.67 132.523 210.311 133.081C209.972 133.639 209.414 134.017 208.797 134.157C208.617 134.197 208.438 134.217 208.259 134.217ZM208.259 130.75C208.259 130.75 208.099 130.75 208.04 130.77C207.781 130.829 207.541 130.989 207.402 131.228C207.263 131.467 207.203 131.726 207.263 132.005C207.322 132.284 207.482 132.503 207.721 132.643C207.96 132.782 208.219 132.842 208.498 132.782C208.757 132.722 208.996 132.563 209.136 132.324C209.275 132.085 209.335 131.826 209.275 131.547C209.215 131.288 209.056 131.049 208.817 130.909C208.657 130.809 208.458 130.75 208.279 130.75H208.259Z" fill="#231F20"/>
<path d="M193.913 117.659C194.871 117.659 195.647 116.883 195.647 115.925C195.647 114.968 194.871 114.192 193.913 114.192C192.956 114.192 192.18 114.968 192.18 115.925C192.18 116.883 192.956 117.659 193.913 117.659Z" fill="#D1D3D4"/>
<path d="M193.913 118.356C192.797 118.356 191.801 117.579 191.542 116.463C191.243 115.148 192.08 113.853 193.375 113.554C194.67 113.255 195.985 114.092 196.284 115.387C196.583 116.702 195.746 117.998 194.451 118.296C194.272 118.336 194.093 118.356 193.913 118.356ZM193.913 114.909C193.913 114.909 193.774 114.909 193.694 114.929C193.156 115.049 192.797 115.606 192.917 116.144C193.036 116.702 193.594 117.041 194.132 116.922C194.69 116.802 195.029 116.244 194.909 115.706C194.81 115.228 194.371 114.909 193.913 114.909Z" fill="#231F20"/>
<path d="M198.217 137.086C199.174 137.086 199.95 136.31 199.95 135.352C199.95 134.395 199.174 133.619 198.217 133.619C197.26 133.619 196.483 134.395 196.483 135.352C196.483 136.31 197.26 137.086 198.217 137.086Z" fill="#D1D3D4"/>
<path d="M198.217 137.783C197.101 137.783 196.105 137.006 195.846 135.89C195.547 134.575 196.384 133.28 197.679 132.981C198.317 132.842 198.974 132.941 199.512 133.3C200.07 133.639 200.449 134.197 200.588 134.814C200.887 136.13 200.05 137.425 198.755 137.724C198.576 137.763 198.396 137.783 198.217 137.783ZM198.217 134.336C198.217 134.336 198.057 134.336 197.998 134.356C197.44 134.476 197.101 135.034 197.221 135.572C197.34 136.13 197.898 136.468 198.436 136.349C198.994 136.229 199.333 135.671 199.213 135.133C199.153 134.874 198.994 134.635 198.755 134.496C198.595 134.396 198.396 134.336 198.217 134.336Z" fill="#231F20"/>
<path d="M183.827 139.395L179.646 118.753L177.088 119.271L181.269 139.913L183.827 139.395Z" fill="#D1D3D4"/>
<path d="M180.743 140.752L176.279 118.735L180.224 117.938L184.688 139.955L180.743 140.752ZM177.933 119.831L181.838 139.078L183.014 138.839L179.109 119.592L177.933 119.831Z" fill="#231F20"/>
<path d="M82.0569 163.156L76.5635 134.629L70.2829 135.839L75.7763 164.366L82.0569 163.156Z" fill="#5C3E1E"/>
<path d="M75.2379 165.201L69.4795 135.273L77.1308 133.798L82.8892 163.726L75.2379 165.201ZM71.1134 136.408L76.3338 163.547L81.2155 162.61L75.9951 135.472L71.1134 136.408Z" fill="#231F20"/>
<path d="M79.999 159.481L75.376 138.934L74.1124 139.218L78.7354 159.765L79.999 159.481Z" fill="#D1D3D4"/>
<path d="M75.889 138.11L73.2646 138.701L78.1982 160.628L80.8225 160.038L75.889 138.11Z" fill="#231F20"/>
<path d="M73.7233 144.917L73.4443 143.522L180.104 121.923L193.753 117.021L194.231 118.336L180.443 123.298L73.7233 144.917Z" fill="#231F20"/>
<path d="M74.2809 147.666L74.002 146.271L180.582 124.692L204.473 116.264L204.951 117.599L180.901 126.067L74.2809 147.666Z" fill="#231F20"/>
<path d="M74.7799 150.177L74.501 148.782L181.241 127.163L214.237 115.686L214.695 117.021L181.579 128.538L74.7799 150.177Z" fill="#231F20"/>
<path d="M75.2975 152.687L75.0186 151.293L181.738 129.694L216.847 126.526L216.986 127.94L181.898 131.088L75.2975 152.687Z" fill="#231F20"/>
<path d="M75.8155 155.198L75.5166 153.823L182.276 132.184L207.661 129.415L207.82 130.829L182.495 133.579L75.8155 155.198Z" fill="#231F20"/>
<path d="M76.4332 157.689L76.1543 156.294L182.834 134.695L197.459 133.021L197.619 134.436L183.053 136.09L76.4332 157.689Z" fill="#231F20"/>
<path d="M199.353 146.77C199.313 149.539 198.815 154.979 195.129 159.761C188.175 168.747 175.602 167.97 170.999 167.791C165.679 167.572 156.533 167.014 150.436 159.741C144.777 152.986 142.327 141.091 148.563 133.499C153.923 126.984 162.75 127.143 163.328 127.163C164.763 127.203 169.863 127.342 173.928 130.969C177.594 134.237 177.555 137.205 179.926 140.354C182.317 143.522 187.358 146.909 199.353 146.77Z" fill="#131313"/>
</g>
<defs>
<clipPath id="clip0_77_155">
<rect width="240" height="291.049" fill="white"/>
</clipPath>
</defs>
</svg>
