<?xml version="1.0" encoding="UTF-8"?>
<svg id="Layer_1" xmlns="http://www.w3.org/2000/svg" xmlns:xlink="http://www.w3.org/1999/xlink" version="1.1" viewBox="0 0 1080 1080">
  <!-- Generator: Adobe Illustrator 30.1.0, SVG Export Plug-In . SVG Version: 2.1.1 Build 136)  -->
  <defs>
    <style>
      .st0 {
        fill: none;
      }

      .st1 {
        fill: #eff0f0;
      }

      .st2 {
        fill: #fff;
      }

      .st3 {
        fill: #131313;
      }

      .st4 {
        clip-path: url(#clippath);
      }
    </style>
    <clipPath id="clippath">
      <rect class="st0" x="-18.9" y="214" width="1098.9" height="566.3"/>
    </clipPath>
  </defs>
  <g class="st4">
    <g>
      <ellipse class="st3" cx="557.1" cy="610" rx="298.6" ry="279.1"/>
      <g>
        <g>
          <ellipse class="st2" cx="436.4" cy="600" rx="84.7" ry="63.3"/>
          <path class="st3" d="M513.1,600c0,36.5-47.9,59.6-76.2,56.9-6.6-.6-10.9-2.5-12.6-3.3-25.5-11.9-27.1-50.3-27.2-52.3-.5-18.4,6-46.3,26-55.4,2.7-1.2,7-2.7,13.8-2.9,27.8-.9,76.2,20.3,76.2,56.9h0Z"/>
          <path class="st2" d="M487.5,600.1c-15,0-32.5,17.5-32.5,32.5,0-15-17.5-32.5-32.5-32.5,15,0,32.5-17.5,32.5-32.5,0,15,17.5,32.5,32.5,32.5Z"/>
        </g>
        <g>
          <ellipse class="st2" cx="677.8" cy="600" rx="84.7" ry="63.3"/>
          <path class="st3" d="M754.4,600c0,36.5-47.9,59.6-76.2,56.9-6.6-.6-10.9-2.5-12.6-3.3-25.5-11.9-27.1-50.3-27.2-52.3-.5-18.4,6-46.3,26-55.4,2.7-1.2,7-2.7,13.8-2.9,27.8-.9,76.2,20.3,76.2,56.9h0Z"/>
          <path class="st2" d="M728.9,600.1c-15,0-32.5,17.5-32.5,32.5,0-15-17.5-32.5-32.5-32.5,15,0,32.5-17.5,32.5-32.5,0,15,17.5,32.5,32.5,32.5Z"/>
        </g>
        <rect class="st2" x="528.5" y="659.5" width="57.3" height="26.3" rx="12.6" ry="12.6"/>
      </g>
      <g>
        <ellipse class="st3" cx="767" cy="394.7" rx="100.7" ry="128.6" transform="translate(-41.7 695) rotate(-47.6)"/>
        <path class="st2" d="M738.8,376.7c22.1-22.6,50.9-30.1,69.9-24.5,20,5.9,33.5,21.9,33.5,21.9.7.8,1.1,1.4,1.4,1.8,3.1,3.9,15.6,20.4,15.5,44.2-.2,36.1-29.3,57.3-32.5,59.4-6-11.4-13.3-23.7-22.4-36.4-21.7-30.3-45.8-51.8-65.5-66.5h0Z"/>
      </g>
      <g>
        <ellipse class="st3" cx="346.5" cy="395.3" rx="128.6" ry="100.7" transform="translate(-175.9 337) rotate(-42.4)"/>
        <path class="st2" d="M374.8,376.7c-22.1-22.6-50.9-30.1-69.9-24.5-20,5.9-33.5,21.9-33.5,21.9-.7.8-1.1,1.4-1.4,1.8-3.1,3.9-15.6,20.4-15.5,44.2.2,36.1,29.3,57.3,32.5,59.4,6-11.4,13.3-23.7,22.4-36.4,21.7-30.3,45.8-51.8,65.5-66.5h-.1Z"/>
      </g>
      <g>
        <ellipse class="st3" cx="258.5" cy="780.3" rx="135.9" ry="97"/>
        <path class="st1" d="M258.5,879c-75.9,0-137.6-44.3-137.6-98.7s61.7-98.7,137.6-98.7,137.6,44.3,137.6,98.7-61.7,98.7-137.6,98.7ZM258.5,685c-74,0-134.2,42.7-134.2,95.3s60.2,95.3,134.2,95.3,134.2-42.7,134.2-95.3-60.2-95.3-134.2-95.3Z"/>
      </g>
      <g>
        <ellipse class="st3" cx="855.7" cy="780.3" rx="135.9" ry="97"/>
        <path class="st1" d="M855.7,879c-75.9,0-137.6-44.3-137.6-98.7s61.7-98.7,137.6-98.7,137.6,44.3,137.6,98.7-61.7,98.7-137.6,98.7h0ZM855.7,685c-74,0-134.2,42.7-134.2,95.3s60.2,95.3,134.2,95.3,134.2-42.7,134.2-95.3-60.2-95.3-134.2-95.3Z"/>
      </g>
    </g>
  </g>
</svg>