<?xml version="1.0" encoding="UTF-8"?>
<svg id="Layer_1" xmlns="http://www.w3.org/2000/svg" version="1.1" viewBox="0 0 605.2 889.9">
  <!-- Generator: Adobe Illustrator 30.0.0, SVG Export Plug-In . SVG Version: 2.1.1 Build 123)  -->
  <defs>
    <style>
      .st0 {
        fill: #231f20;
      }

      .st1 {
        fill: #fff;
      }

      .st2 {
        fill: #241313;
      }
    </style>
  </defs>
  <ellipse class="st2" cx="238.2" cy="222.6" rx="190.5" ry="178.2" transform="translate(-24 28.8) rotate(-6.6)"/>
  <g>
    <g>
      <ellipse class="st1" cx="161" cy="225.1" rx="54" ry="40.4" transform="translate(-24.8 20) rotate(-6.6)"/>
      <path class="st0" d="M209.6,219.5c2.7,23.1-26,41.3-44.1,41.7-4.2,0-7.1-.8-8.2-1.2-17.1-5.7-20.9-29.9-21.1-31.2-1.7-11.6.4-29.8,12.4-37,1.6-1,4.2-2.2,8.5-2.9,17.6-2.6,49.8,7.3,52.5,30.5Z"/>
      <path class="st1" d="M193.4,221.4c-9.5,1.1-19.3,13.5-18.2,23-1.1-9.5-13.5-19.3-23-18.2,9.5-1.1,19.3-13.5,18.2-23,1.1,9.5,13.5,19.3,23,18.2Z"/>
    </g>
    <g>
      <ellipse class="st1" cx="314" cy="207.4" rx="54" ry="40.4" transform="translate(-21.7 37.4) rotate(-6.6)"/>
      <path class="st0" d="M362.5,201.8c2.7,23.1-26,41.3-44.1,41.7-4.2,0-7.1-.8-8.2-1.2-17.1-5.7-20.9-29.9-21.1-31.2-1.7-11.6.4-29.8,12.4-37,1.6-1,4.2-2.2,8.5-2.9,17.6-2.6,49.8,7.3,52.5,30.5Z"/>
      <path class="st1" d="M346.3,203.8c-9.5,1.1-19.3,13.5-18.2,23-1.1-9.5-13.5-19.3-23-18.2,9.5-1.1,19.3-13.5,18.2-23,1.1,9.5,13.5,19.3,23,18.2Z"/>
    </g>
    <rect class="st1" x="224.6" y="253.9" width="36.5" height="16.8" rx="6.4" ry="6.4" transform="translate(-28.5 29.6) rotate(-6.6)"/>
  </g>
  <g>
    <ellipse class="st2" cx="355.6" cy="70.9" rx="64.3" ry="82.1" transform="translate(89.6 317.3) rotate(-54.1)"/>
    <path class="st1" d="M336.3,61.3c12.3-16,30.1-22.8,42.5-20.7,13.1,2.3,22.8,11.5,22.8,11.5.5.4.8.8,1,1,2.2,2.2,11.4,11.8,13,26.9,2.5,22.9-14.4,38.5-16.2,40.1-4.6-6.8-10.2-14.1-16.8-21.4-16-17.6-32.8-29.5-46.4-37.4Z"/>
  </g>
  <g>
    <ellipse class="st2" cx="89" cy="101.7" rx="82.1" ry="64.3" transform="translate(-46.1 102.4) rotate(-49.1)"/>
    <path class="st1" d="M105.6,87.9c-15.7-12.7-34.5-15.4-46.1-10.4-12.2,5.2-19.6,16.4-19.6,16.4-.4.5-.6,1-.8,1.2-1.7,2.7-8.4,14.1-6.6,29.2,2.8,22.9,22.8,34.2,24.9,35.3,2.9-7.7,6.7-16,11.5-24.7,11.6-20.8,25.2-36.2,36.7-47Z"/>
  </g>
  <path class="st2" d="M596.3,691.6c-18.8,53.1-82.5,77.6-127.8,75.8-6.9-.3-16.5-.6-28.2-4.8-30.1-10.7-52.7-38.9-62.9-51.6-10-12.5-18.2-25.3-26.1-23.4-3,.7-5.7,3.5-6.5,6.4-1.4,5.4,4.3,11.1,9.5,16.2,6.9,6.7,13.3,10.2,14.5,11.2,18.6,15.6,16.3,51.3,16.3,51.3,0,0-3,45.3-50.5,87.7-47.6,42.4-106.3,26.8-106.3,26.8-80.3,5.2-140.9-191.3-140.9-191.3-4.9-31.6-8.4-71.3-6.3-117,2.2-45.6,9.5-84.8,17.4-115.8-7.2,26.2-13.7,57.1-17.2,92.2-5.5,55.2-1.9,103.1,3.9,140.1-9.8-2.3-26.5-7.7-42.7-21.1-2.7-2.2-10.9-9.2-19-20.8-17.6-25-21-51.1-22.4-63.2-6.9-59.1,18.8-117.8,29-140.4,12.6-28.1,35.7-70.7,77-114.2,94.7-8.2,189.4-16.4,284.1-24.6,10.6,9.5,25.7,23.5,43.4,41.1,52.1,51.9,62.5,72.1,67.2,82.5,6.7,14.7,14.8,33.3,13,58.2-1.7,22.8-11,40.1-17.4,49.8-5.1-5.2-9.3-13.2-11.5-18.4l-7.8-17.1c-5.1-11.3-11.7-21.6-18.3-32.1-16.3-26-34.5-50.8-54.7-74,23.9,28,44.8,58.5,63.2,90.3,5.5,9.2,11.3,23,15.8,32.8,2.6,7.3,6.7,14.4,12.2,20.1,0,0-.1.1-.1.2,0,0,35.5,31.9,59.3,41.6,23.8,9.7,30.5,15.6,40.9,26.7,10.4,11.1,13.4,40.9,0,78.9Z"/>
  <path class="st1" d="M191.9,438.9c46.9,12.9,96.2,5.4,137.3-20.4,3.7-2.3,3.8-8.3,1.3-11.5-3-3.8-7.7-3.6-11.5-1.3-18.2,11.4-38.9,18.8-60.2,21.8-12,1.7-24.1,1.9-36.2.7-4.7-.5-9.4-1.2-14.1-2.1-4-.8-7.9-1.7-10.5-2.4-4.3-1.2-8.8.1-10.6,4.5-1.5,3.7.3,9.5,4.5,10.6h0Z"/>
</svg>