<?xml version="1.0" encoding="UTF-8"?>
<svg id="Layer_1" xmlns="http://www.w3.org/2000/svg" version="1.1" viewBox="0 0 586.8 333.1">
  <!-- Generator: Adobe Illustrator 30.0.0, SVG Export Plug-In . SVG Version: 2.1.1 Build 123)  -->
  <defs>
    <style>
      .st0 {
        fill: #141414;
      }

      .st1 {
        fill: #fff;
      }

      .st2 {
        fill: #eff0f0;
      }

      .st3 {
        fill: #131313;
      }

      .st4 {
        fill: #4b9cae;
      }
    </style>
  </defs>
  <path class="st0" d="M57.6,174.3c2.2-9,8.3-27.7,25.1-44.1,26.4-25.8,59.5-26.5,67-26.5,7.4-.2,16.2.2,25.9,1.6,8,1.2,15.1,2.9,21.2,4.8,7.3,2.2,13.4,1.5,19.9-.6,6.7-2.2,10.8-6.2,16-11.5,14.5-14.7,21.8-22.1,24-24.9,11.5-14.7,59.7-54.3,119.3-55.6,69-1.5,115.6,49.1,123.2,57.7,0,0,10.1,22.4,10.7,38.1,0,0,31-15.5,58.2,3.2,27.2,18.7,16.7,64.9,16.7,64.9,0,0-24.8,68.4-114.8,87.4,0,0,15,47.9-90.7,54.6,0,0-61.3-2.1-93.4-8.8-32.1-6.7-51.8,1.4-61.3,8.8-9.5,7.4-32.8,16.2-80.3,2.1-47.6-14.1-88.4-33.5-105.3-61.3-16.9-27.8,4.9-63.1,10.2-66.9,5.3-3.9,8.5-23.1,8.5-23.1Z"/>
  <path class="st0" d="M435.1,30.6s49-22.3,72.8,11.7c23.8,34,0,58.8,0,58.8l-11.7,13.6-61.2-84Z"/>
  <ellipse class="st0" cx="444" cy="29.7" rx="29.2" ry="33.3" transform="translate(269.4 438.9) rotate(-70.7)"/>
  <path class="st0" d="M145.1,103.8c.4,1.3.7,2.6.9,3.9,3.2,19.5-12.7,40.3-37.4,47.7-26.3,7.9-52.6-2.4-58.8-23-6.2-20.6,10.2-43.7,36.5-51.6,26.3-7.9,52.6,2.4,58.8,23Z"/>
  <g>
    <path class="st0" d="M252,239.9c4.7.7,9.5.3,14.1-1.3,19.1-6.6,27.8-31.7,19.4-56-8.4-24.4-30.7-38.8-49.8-32.2-6.4,2.2-11.6,6.5-15.4,12.1"/>
    <path class="st2" d="M252,239.9c23.3,3,37.1-18.6,36.3-39.8-.6-20.2-12.2-41.4-31.7-48.9-6.4-2.4-13.6-2.9-20.1-.9-6.6,2-12.3,6.4-16.2,12.1,3.8-5.8,9.4-10.4,16.1-12.5,13.6-4.5,28.3,2.2,37.5,12.3,9.4,10.2,14.8,24,15.2,37.9.8,21.5-13.5,43.3-37.1,39.8h0Z"/>
  </g>
  <path class="st1" d="M123.4,121.1c-.2-.9-5.8-19.9-23.2-24.3-8.6-2.2-16,.3-19.1,1.6-.2,0-.6.2-1,.4-1.3.5-14.1,6.2-18.3,17.1-3.6,9.4-.3,21.3,8.1,30,3.5-3.6,8-7.5,13.4-11.2,15.4-10.2,30.9-12.9,40.1-13.7Z"/>
  <path class="st1" d="M253.5,231.8c13-3.7,22-13.2,24.1-21.7,2.2-8.9-.8-17.4-.8-17.4-.1-.4-.3-.7-.3-.9-.7-2-4.1-10.2-12.8-15.1-13.2-7.4-27.3-.7-28.7,0,2.9,4.7,5.8,10,8.5,16.1,6.4,14.6,9,28.3,10.1,38.9Z"/>
  <path class="st2" d="M66.3,214.1c-2.2,9.1,2.1,18.1,9.4,23.6.6.4,2.3,1.6,2.9,2,1.1.7,2.9,1.6,4.1,2.3,6.3,3,13.1,5.4,20.1,5.8,5.6.3,13.7-.3,17.2-5.3-1.5,2.9-4.8,4.2-7.8,5.2-10.2,2.8-20.9-.2-30.1-4.6-1.2-.7-3-1.6-4.2-2.4-.6-.5-2.3-1.6-2.9-2.1-7.3-5.6-11.6-15.4-8.6-24.5h0Z"/>
  <path class="st2" d="M143.3,250.9c-2.2,9.1,2.1,18,9.4,23.6.6.4,2.3,1.6,2.9,2,1.1.7,2.9,1.6,4.1,2.3,6.3,3,13.1,5.4,20.1,5.8,5.6.3,13.7-.3,17.2-5.3-1.5,2.9-4.8,4.2-7.8,5.2-10.2,2.8-20.9-.2-30.1-4.6-1.2-.7-3-1.6-4.2-2.4-.6-.5-2.3-1.6-2.9-2.1-7.3-5.6-11.6-15.4-8.6-24.5h0Z"/>
  <rect class="st2" x="107.1" y="266.5" width="23.2" height="10.7" rx="5.3" ry="5.3" transform="translate(117.7 -24.8) rotate(23.4)"/>
  <g>
    <path class="st4" d="M85.9,260.3c-6.5-1.7-15.9-5.2-24.1-13.2-11.4-11.1-14.8-25.3-15.9-30-2.7-11.8-.5-17.2-5.7-28.9-4.2-9.3-8.2-11.6-9.4-12.3-6.9-3.6-16.4-2.3-22.2,3.1-3.8,3.5-5,7.9-5.9,11.6-3.6,14.5,3.2,27.3,5.3,30.7,4.3,7.4,10,12.3,16.4,16.6,21.2,14.5,45.9,20,61.6,22.4Z"/>
    <path class="st3" d="M85.6,261.8c-24.3-3.6-45.9-11.5-62.3-22.7-5.6-3.8-12-8.9-16.9-17.1-2.8-4.8-9-17.6-5.4-31.9.9-3.5,2.1-8.4,6.4-12.3,6.3-5.8,16.6-7.2,24-3.3,4.6,2.5,8.1,8.5,10.1,13,3.3,7.4,3.7,12.4,4.2,17.8.3,3.4.6,6.9,1.6,11.3,2.8,12.1,8,21.9,15.4,29.2,6.3,6.1,14.2,10.4,23.4,12.8l-.6,3.1ZM22.1,175.5c-4.5,0-9.2,1.6-12.5,4.7-3.6,3.3-4.6,7.4-5.4,10.8-3.3,13.2,2.5,25,5.1,29.5,4.5,7.7,10.6,12.5,15.9,16.1,12.4,8.4,27.8,14.9,45.2,19.1-3.6-2.1-6.8-4.6-9.8-7.5-7.9-7.7-13.4-18.1-16.3-30.7-1.1-4.7-1.4-8.3-1.7-11.8-.4-5.3-.8-9.9-3.9-16.8-2.6-5.8-5.7-10-8.7-11.5-2.4-1.3-5.1-1.9-7.9-1.9Z"/>
  </g>
  <g>
    <path class="st0" d="M145.3,103.9c.5,1.9,1,4.5,1,7.6,0,4.2-.9,7.6-1.7,9.8"/>
    <path class="st2" d="M145.5,103.8c1.5,5.7,1.1,11.9-.9,17.4,1.9-5.6,2.1-11.7.5-17.3h.4Z"/>
  </g>
  <g>
    <path class="st0" d="M514.6,163.8c1.5-24.5-2.1-44-5.5-56.6-1.9-7.3-5.2-19.3-12.7-33.5-1.2-2.2-2.6-4.4-4-6.7-6-9.5-12.4-17.6-18.7-24.6.9-2,1.9-4.9,2.3-8.4.5-4.3,0-7.9-.6-10.2"/>
    <path class="st2" d="M514.6,163.8c1.4-27.4-3.2-55.1-13.9-80.3-6.5-15.1-16.2-28.6-27-41,0,0,0-.1,0-.1,0,0,0-.1,0-.1,2.6-5.7,3.3-12.4,1.8-18.6,1.5,5.7,1,13.9-1.5,18.5,11.1,12.2,20.9,25.7,27.5,40.9,10.7,25.3,15.2,53.3,13.1,80.6h0Z"/>
  </g>
  <g>
    <path class="st0" d="M470,267.9c-3.1-8.5-9.2-20.5-21.2-27.7-10-6-18.6-5.3-42.4-7.3-10.1-.8-24.6-2.3-42.4-4.9"/>
    <path class="st2" d="M469.2,268.2c-4.9-13.9-15-27.4-29.8-31.3-4.8-1.3-9.9-1.7-14.9-2.2-20.2-1.4-40.4-3.5-60.5-6.7,20.1,2.9,40.3,4.6,60.5,5.8,5.1.4,10.2.7,15.2,2,15.3,3.8,25.9,17.5,31.2,31.8,0,0-1.6.6-1.6.6h0Z"/>
  </g>
</svg>