<svg width="244" height="366" viewBox="0 0 244 366" fill="none" xmlns="http://www.w3.org/2000/svg">
<path d="M222.003 119.94C233.134 80.5059 207.976 38.8938 165.813 26.9963C123.65 15.0989 80.4464 37.4214 69.3158 76.8551C58.1852 116.289 83.3423 157.901 125.506 169.798C167.669 181.696 210.872 159.373 222.003 119.94Z" fill="#131313"/>
<path d="M198.866 110.659C201.389 101.718 193.747 91.7363 181.796 88.3641C169.845 84.9918 158.111 89.5061 155.588 98.447C153.064 107.388 160.706 117.37 172.657 120.742C184.608 124.114 196.342 119.6 198.866 110.659Z" fill="white"/>
<path d="M157.628 99.0155C154.979 108.348 165.591 117.713 173.002 119.069C174.72 119.384 175.982 119.226 176.455 119.147C183.85 117.934 187.019 108.238 187.176 107.734C188.643 103.067 188.99 95.4684 184.528 91.7006C183.928 91.1961 182.935 90.5024 181.216 89.9507C174.168 87.712 160.277 89.6669 157.628 99.0155Z" fill="#131313"/>
<path d="M164.14 100.876C167.972 101.964 171.188 107.686 170.1 111.517C171.188 107.686 176.912 104.47 180.743 105.558C176.912 104.47 173.695 98.7475 174.783 94.9166C173.695 98.7475 167.972 101.964 164.14 100.876Z" fill="white"/>
<path d="M137.163 93.2551C139.687 84.3143 132.045 74.3325 120.094 70.9603C108.143 67.588 96.4088 72.1023 93.8852 81.0432C91.3615 89.984 99.0038 99.9658 110.955 103.338C122.906 106.71 134.64 102.196 137.163 93.2551Z" fill="white"/>
<path d="M95.9309 81.611C93.282 90.9438 103.893 100.308 111.304 101.664C113.023 101.979 114.284 101.822 114.757 101.743C122.152 100.529 125.321 90.8335 125.479 90.329C126.945 85.6626 127.292 78.0639 122.83 74.296C122.231 73.7915 121.238 73.0979 119.519 72.5461C112.471 70.3075 98.5798 72.2623 95.9309 81.611Z" fill="#131313"/>
<path d="M102.458 83.4713C106.29 84.559 109.507 90.2817 108.419 94.1126C109.507 90.2817 115.23 87.0657 119.062 88.1535C115.23 87.0657 112.014 81.343 113.101 77.5121C112.014 81.343 106.29 84.559 102.458 83.4713Z" fill="white"/>
<path d="M136.212 116.662L144.118 118.893C145.978 119.418 147.912 118.335 148.437 116.475C148.962 114.615 147.88 112.681 146.019 112.156L138.113 109.925C136.253 109.4 134.319 110.483 133.794 112.343C133.269 114.203 134.351 116.137 136.212 116.662Z" fill="white"/>
<path d="M119.51 52.1567C136.361 43.6644 144.629 26.0841 137.978 12.89C131.327 -0.304063 112.274 -4.11566 95.4233 4.37659C78.5724 12.8689 70.3041 30.4491 76.9555 43.6432C83.6069 56.8373 102.659 60.6489 119.51 52.1567Z" fill="#131313"/>
<path d="M116.05 25.598C112.029 18.22 105.218 14.2157 99.9358 14.2945C94.4014 14.3733 89.7816 17.4948 89.7816 17.4948C89.5608 17.6524 89.3874 17.7628 89.2928 17.8416C88.2364 18.5983 83.8215 21.9405 82.1502 28.0415C79.5959 37.2956 85.5244 44.7997 86.1551 45.588C88.5044 43.0971 91.2637 40.4801 94.496 37.8947C102.238 31.7148 109.932 27.947 116.05 25.598Z" fill="white"/>
<path d="M232.977 87.6212C245.545 79.8484 247.685 60.5396 237.758 44.4938C227.831 28.448 209.596 21.7414 197.028 29.5142C184.46 37.287 182.32 56.5958 192.247 72.6416C202.174 88.6874 220.41 95.394 232.977 87.6212Z" fill="#131313"/>
<path d="M209.093 51.8467C216.378 47.6532 224.277 47.8108 228.739 50.6328C233.422 53.5966 235.724 58.6572 235.724 58.6572C235.835 58.9094 235.914 59.0986 235.961 59.2089C236.465 60.4228 238.484 65.5622 236.718 71.6475C234.053 80.8543 225.081 84.1807 224.135 84.5117C223.442 81.1538 222.448 77.4806 221.045 73.5866C217.671 64.2695 213.082 57.0334 209.093 51.8467Z" fill="white"/>
<path d="M28.6672 184.493C30.5593 187.378 33.6812 194.504 34.0124 204.042C34.0597 205.224 34.0597 206.675 33.9178 208.708C33.6655 212.366 32.5145 224.079 24.7096 242.54C22.2026 248.468 18.3238 257.517 11.1497 268.205C3.86516 279.067 1.54736 278.642 0.61708 282.741C-5.24838 308.848 47.8876 349.49 69.2051 339.195C70.6084 338.517 76.5843 335.348 81.8663 329.2C83.9003 326.835 89.545 319.71 96.3092 312.678C97.3656 311.591 99.1158 309.778 100.708 310.219C102.932 310.834 103.515 315.422 103.751 317.707C105.659 335.412 101.954 342.506 104.682 349.301C112.487 368.802 165.008 365.791 167.735 365.538C167.83 365.538 172.655 365.065 172.655 365.065C172.655 365.065 185.616 364.924 191.355 353.273C197.094 341.623 200.61 308.611 200.61 308.611C200.61 308.611 200.61 308.611 200.626 308.611C204.174 275.71 202.566 242.24 196.006 209.749C202.849 242.099 204.789 275.52 201.572 308.501C207.58 307.697 239.903 301.217 242.299 255.656C244.964 205.398 191.986 148.328 191.986 148.328C134.734 147.099 92.6512 136.095 79.3435 126.194C69.4889 118.864 64.6641 112.826 64.6641 112.826C57.963 104.423 58.0891 100.009 50.8519 92.2051C46.4528 87.4598 42.4164 83.1087 35.9833 81.3272C25.703 78.4738 14.0509 83.4713 7.50742 90.7704C-2.58369 102.058 0.0967574 118.202 1.02703 125.233C2.84028 138.822 18.4815 168.933 28.6672 184.478V184.493Z" fill="#131313"/>
<path d="M155.421 202.402C132.448 206.643 109.128 201.047 90.4755 187.016C88.7883 185.739 89.0091 182.87 90.3493 181.466C91.9576 179.78 94.1966 180.048 95.8994 181.34C104.162 187.552 113.764 191.95 123.839 194.236C129.531 195.529 135.318 196.128 141.168 196.033C143.438 196.002 145.724 195.86 147.979 195.623C149.918 195.418 151.842 195.135 153.135 194.898C155.216 194.52 157.361 195.324 158.039 197.499C158.606 199.344 157.518 202.008 155.437 202.402H155.421Z" fill="white"/>
</svg>
