<svg width="286" height="260" viewBox="0 0 286 260" fill="none" xmlns="http://www.w3.org/2000/svg">
<path d="M248.519 146.886C260.994 102.65 232.799 55.97 185.544 42.6236C138.289 29.2772 89.8691 54.3183 77.3944 98.5543C64.9198 142.79 93.1147 189.47 140.369 202.817C187.624 216.163 236.044 191.122 248.519 146.886Z" fill="#241313"/>
<path d="M222.588 136.475C225.416 126.445 216.851 115.248 203.457 111.465C190.063 107.682 176.912 112.746 174.084 122.776C171.256 132.805 179.821 144.003 193.215 147.786C206.609 151.569 219.76 146.505 222.588 136.475Z" fill="white"/>
<path d="M176.371 123.413C173.402 133.883 185.295 144.388 193.601 145.909C195.527 146.262 196.941 146.085 197.471 145.997C205.759 144.635 209.31 133.759 209.487 133.193C211.131 127.958 211.519 119.434 206.518 115.208C205.847 114.642 204.734 113.864 202.807 113.245C194.908 110.733 179.34 112.926 176.371 123.413Z" fill="#231F20"/>
<path d="M183.669 125.5C187.964 126.721 191.569 133.14 190.349 137.438C191.569 133.14 197.983 129.532 202.277 130.753C197.983 129.532 194.378 123.113 195.598 118.815C194.378 123.113 187.964 126.721 183.669 125.5Z" fill="white"/>
<path d="M153.435 116.952C156.263 106.922 147.698 95.7245 134.304 91.9416C120.91 88.1586 107.759 93.2227 104.931 103.252C102.102 113.282 110.667 124.479 124.061 128.262C137.455 132.045 150.606 126.981 153.435 116.952Z" fill="white"/>
<path d="M107.223 103.889C104.254 114.359 116.147 124.864 124.453 126.385C126.379 126.738 127.793 126.561 128.323 126.473C136.611 125.111 140.163 114.235 140.339 113.669C141.983 108.434 142.371 99.9103 137.37 95.6836C136.699 95.1176 135.586 94.3395 133.659 93.7205C125.76 91.2093 110.192 93.4022 107.223 103.889Z" fill="#231F20"/>
<path d="M114.539 105.976C118.833 107.196 122.438 113.616 121.219 117.913C122.438 113.616 128.853 110.008 133.147 111.229C128.853 110.008 125.248 103.589 126.467 99.2913C125.248 103.589 118.833 107.196 114.539 105.976Z" fill="white"/>
<path d="M149.137 142.296L164.46 146.624C164.761 146.709 165.073 146.534 165.158 146.233L166.982 139.765C167.067 139.464 166.892 139.152 166.591 139.067L151.268 134.739C150.967 134.654 150.655 134.829 150.57 135.13L148.746 141.598C148.661 141.898 148.836 142.211 149.137 142.296Z" fill="white"/>
<path d="M133.649 70.848C152.535 61.3216 161.802 41.6003 154.347 26.7994C146.893 11.9985 125.54 7.72271 106.654 17.2492C87.7684 26.7756 78.5016 46.4969 85.9562 61.2978C93.4107 76.0987 114.764 80.3745 133.649 70.848Z" fill="#241313"/>
<path d="M129.772 41.0549C125.265 32.7784 117.631 28.2865 111.711 28.3749C105.509 28.4633 100.331 31.9649 100.331 31.9649C100.084 32.1418 99.8893 32.2656 99.7833 32.354C98.5993 33.2029 93.6513 36.952 91.7782 43.7961C88.9154 54.1771 95.5598 62.5951 96.2667 63.4794C98.8997 60.6852 101.992 57.7495 105.615 54.8492C114.291 47.9167 122.915 43.69 129.772 41.0549Z" fill="white"/>
<path d="M260.818 110.632C274.903 101.912 277.302 80.2518 266.177 62.2519C255.051 44.252 234.613 36.7287 220.528 45.4481C206.443 54.1675 204.044 75.8278 215.17 93.8277C226.296 111.828 246.733 119.351 260.818 110.632Z" fill="#241313"/>
<path d="M234.051 70.5003C242.215 65.7961 251.068 65.973 256.069 69.1385C261.317 72.4633 263.897 78.1402 263.897 78.1402C264.021 78.4231 264.109 78.6353 264.162 78.7591C264.728 80.1209 266.99 85.8861 265.011 92.7125C262.024 103.04 251.969 106.772 250.909 107.143C250.131 103.376 249.018 99.2559 247.445 94.8877C243.664 84.436 238.521 76.3186 234.051 70.5003Z" fill="white"/>
<path d="M31.8374 219.301C33.9579 222.537 37.4569 230.531 37.828 241.23C37.881 242.557 37.881 244.184 37.7219 246.465C37.4392 250.568 36.1492 263.708 27.4019 284.417C24.5921 291.066 20.245 301.217 12.2045 313.208C4.04039 325.393 1.4427 324.915 0.400091 329.513C-6.17364 358.799 53.3787 404.391 77.2704 392.843C78.8431 392.082 85.5406 388.528 91.4605 381.631C93.7401 378.978 100.066 370.984 107.647 363.097C108.831 361.877 110.793 359.843 112.578 360.338C115.069 361.028 115.723 366.174 115.988 368.738C118.127 388.598 113.974 396.557 117.031 404.179C125.778 426.055 184.641 422.677 187.699 422.394C187.805 422.394 193.212 421.864 193.212 421.864C193.212 421.864 207.738 421.704 214.17 408.635C220.603 395.566 224.543 358.534 224.543 358.534C224.543 358.534 224.543 358.534 224.561 358.534C228.537 321.626 226.734 284.081 219.383 247.632C227.053 283.922 229.226 321.413 225.621 358.41C232.354 357.508 268.58 350.24 271.266 299.131C274.253 242.751 214.877 178.732 214.877 178.732C150.712 177.352 103.548 165.008 88.633 153.902C77.5885 145.679 72.181 138.905 72.181 138.905C64.6707 129.479 64.8121 124.528 56.701 115.774C51.7706 110.45 47.2468 105.569 40.0369 103.571C28.5152 100.37 15.4561 105.976 8.12246 114.164C-3.18719 126.827 -0.183063 144.936 0.859546 152.823C2.89175 168.068 20.4217 201.846 31.8374 219.283V219.301Z" fill="#241313"/>
<path d="M173.897 239.391C148.15 244.148 122.014 237.87 101.109 222.131C99.2181 220.698 99.4655 217.479 100.968 215.905C102.77 214.013 105.279 214.314 107.188 215.764C116.448 222.732 127.21 227.666 138.501 230.23C144.881 231.68 151.366 232.352 157.922 232.246C160.467 232.211 163.029 232.052 165.556 231.787C167.73 231.557 169.886 231.238 171.335 230.973C173.667 230.549 176.071 231.451 176.831 233.891C177.467 235.96 176.247 238.949 173.915 239.391H173.897Z" fill="white"/>
</svg>
